# Original model Created by Flaxbeard. Converted to OBJ by TwistedGate.

mtllib autolubricator.mtl
o AutoLubricator_p4
v 0.250000 0.437500 0.250000
v 0.250000 0.750000 0.250000
v 0.250000 0.437500 0.750000
v 0.250000 0.750000 0.750000
v 0.750000 0.437500 0.250000
v 0.750000 0.750000 0.250000
v 0.750000 0.437500 0.750000
v 0.750000 0.750000 0.750000
v 0.250000 1.937500 0.250000
v 0.250000 2.000000 0.250000
v 0.250000 1.937500 0.750000
v 0.250000 2.000000 0.750000
v 0.750000 1.937500 0.250000
v 0.750000 2.000000 0.250000
v 0.750000 1.937500 0.750000
v 0.750000 2.000000 0.750000
v 0.125000 0.750000 0.125000
v 0.125000 0.875000 0.125000
v 0.125000 0.750000 0.875000
v 0.125000 0.875000 0.875000
v 0.875000 0.750000 0.125000
v 0.875000 0.875000 0.125000
v 0.875000 0.750000 0.875000
v 0.875000 0.875000 0.875000
v 0.750000 0.500000 0.562500
v 0.750000 0.625000 0.562500
v 0.750000 0.500000 0.687500
v 0.750000 0.625000 0.687500
v 1.000000 0.500000 0.562500
v 1.000000 0.625000 0.562500
v 1.000000 0.500000 0.687500
v 1.000000 0.625000 0.687500
v 0.750000 0.500000 0.312500
v 0.750000 0.625000 0.312500
v 0.750000 0.500000 0.437500
v 0.750000 0.625000 0.437500
v 1.000000 0.500000 0.312500
v 1.000000 0.625000 0.312500
v 1.000000 0.500000 0.437500
v 1.000000 0.625000 0.437500
v 0.187500 0.875000 0.187500
v 0.187500 0.875000 0.250000
v 0.250000 0.875000 0.187500
v 0.250000 1.875000 0.250000
v 0.750000 1.937500 0.187500
v 0.812500 1.937500 0.187500
v 0.750000 1.875000 0.750000
v 0.812500 1.875000 0.812500
v 0.812500 1.937500 0.812500
v 0.187500 1.937500 0.750000
v 0.187500 1.875000 0.812500
v 0.187500 1.937500 0.812500
v 0.250000 1.875000 0.812500
v 0.250000 1.937500 0.812500
v 0.187500 1.875000 0.187500
v 0.187500 1.937500 0.187500
v 0.187500 1.875000 0.250000
v 0.750000 1.875000 0.812500
v 0.750000 1.937500 0.812500
v 0.250000 1.875000 0.187500
v 0.250000 1.937500 0.187500
v 0.812500 1.875000 0.250000
v 0.812500 1.937500 0.250000
v 0.812500 1.937500 0.750000
v 0.187500 1.937500 0.250000
v 0.750000 0.875000 0.187500
v 0.750000 1.875000 0.187500
v 0.812500 0.875000 0.187500
v 0.812500 1.875000 0.187500
v 0.812500 0.875000 0.250000
v 0.750000 0.875000 0.750000
v 0.750000 0.875000 0.812500
v 0.812500 0.875000 0.750000
v 0.812500 1.875000 0.750000
v 0.812500 0.875000 0.812500
v 0.187500 0.875000 0.750000
v 0.187500 1.875000 0.750000
v 0.187500 0.875000 0.812500
v 0.250000 0.875000 0.750000
v 0.250000 0.875000 0.812500
v 0.812500 0.343750 0.187500
v 0.937500 0.218750 0.187500
v 0.937500 0.343750 0.187500
v 0.937500 0.218750 0.812500
v 0.937500 0.343750 0.812500
v 0.062500 0.218750 0.187500
v 0.062500 0.343750 0.187500
v 0.062500 0.218750 0.812500
v 0.062500 0.343750 0.812500
v 0.187500 0.218750 0.187500
v 0.187500 0.218750 0.812500
v 0.187500 0.343750 0.812500
v 0.187500 0.218750 0.937500
v 0.187500 0.343750 0.937500
v 0.812500 0.218750 0.812500
v 0.812500 0.343750 0.812500
v 0.812500 0.218750 0.937500
v 0.812500 0.343750 0.937500
v 0.187500 0.218750 0.062500
v 0.187500 0.343750 0.062500
v 0.187500 0.343750 0.187500
v 0.812500 0.218750 0.062500
v 0.812500 0.343750 0.062500
v 0.812500 0.218750 0.187500
v 0.109375 0.562500 0.187500
v 0.109375 0.687500 0.187500
v 0.109375 0.562500 0.812500
v 0.109375 0.687500 0.812500
v 0.234375 0.562500 0.187500
v 0.234375 0.687500 0.187500
v 0.234375 0.562500 0.812500
v 0.234375 0.687500 0.812500
v 0.187500 0.562500 0.765625
v 0.187500 0.687500 0.765625
v 0.187500 0.562500 0.890625
v 0.187500 0.687500 0.890625
v 0.812500 0.562500 0.765625
v 0.812500 0.687500 0.765625
v 0.812500 0.562500 0.890625
v 0.812500 0.687500 0.890625
v 0.187500 0.562500 0.109375
v 0.187500 0.687500 0.109375
v 0.187500 0.562500 0.234375
v 0.187500 0.687500 0.234375
v 0.812500 0.562500 0.109375
v 0.812500 0.687500 0.109375
v 0.812500 0.562500 0.234375
v 0.812500 0.687500 0.234375
v 0.134707 0.015084 -0.000540
v 0.222236 0.754798 0.086989
v 0.002124 0.015084 0.132042
v 0.089654 0.754798 0.219572
v 0.265471 -0.015863 0.130224
v 0.353000 0.723852 0.217754
v 0.132888 -0.015863 0.262806
v 0.220418 0.723852 0.350336
v 0.865293 0.015084 -0.000540
v 0.777764 0.754798 0.086989
v 0.997876 0.015084 0.132042
v 0.910346 0.754798 0.219572
v 0.734529 -0.015863 0.130224
v 0.647000 0.723852 0.217754
v 0.867112 -0.015863 0.262806
v 0.779582 0.723852 0.350336
v 0.134707 0.015084 1.000540
v 0.222236 0.754798 0.913011
v 0.002124 0.015084 0.867958
v 0.089654 0.754798 0.780428
v 0.265471 -0.015863 0.869776
v 0.353000 0.723852 0.782246
v 0.132888 -0.015863 0.737194
v 0.220418 0.723852 0.649664
v 0.865293 0.015084 1.000540
v 0.777764 0.754798 0.913011
v 0.997876 0.015084 0.867958
v 0.910346 0.754798 0.780428
v 0.734529 -0.015863 0.869776
v 0.647000 0.723852 0.782246
v 0.867112 -0.015863 0.737194
v 0.779582 0.723852 0.649664
v 0.250000 0.875000 0.250000
v 0.250000 1.875000 0.750000
v 0.750000 0.875000 0.250000
v 0.750000 1.875000 0.250000
vt 0.824561 0.277778
vt 0.684211 0.277778
vt 0.684211 0.555556
vt 0.824561 0.555556
vt 0.824561 0.277778
vt 0.684211 0.277778
vt 0.684211 0.555556
vt 0.824561 0.555556
vt 0.824561 0.277778
vt 0.684211 0.277778
vt 0.684211 0.555556
vt 0.824561 0.555556
vt 0.824561 0.277778
vt 0.684211 0.277778
vt 0.684211 0.555556
vt 0.824561 0.555556
vt 0.824561 0.555556
vt 0.684211 0.555556
vt 0.684211 1.000000
vt 0.824561 1.000000
vt 0.491228 0.500000
vt 0.350877 0.500000
vt 0.350877 0.555556
vt 0.491228 0.555556
vt 0.491228 0.500000
vt 0.350877 0.500000
vt 0.350877 0.555556
vt 0.491228 0.555556
vt 0.491228 0.500000
vt 0.350877 0.500000
vt 0.350877 0.555556
vt 0.491228 0.555556
vt 0.491228 0.500000
vt 0.350877 0.500000
vt 0.350877 0.555556
vt 0.491228 0.555556
vt 0.491228 0.555556
vt 0.350877 0.555556
vt 0.350877 1.000000
vt 0.491228 1.000000
vt 0.631579 0.555556
vt 0.491228 1.000000
vt 0.631579 1.000000
vt 0.350877 0.222222
vt 0.140351 0.222222
vt 0.140351 0.333333
vt 0.350877 0.333333
vt 0.350877 0.222222
vt 0.140351 0.222222
vt 0.140351 0.333333
vt 0.350877 0.333333
vt 0.350877 0.222222
vt 0.140351 0.222222
vt 0.140351 0.333333
vt 0.350877 0.333333
vt 0.350877 0.222222
vt 0.140351 0.222222
vt 0.140351 0.333333
vt 0.350877 0.333333
vt 0.350877 0.333333
vt 0.140351 0.333333
vt 0.140351 1.000000
vt 0.350877 1.000000
vt 0.140351 1.000000
vt 0.350877 1.000000
vt 0.614035 0.388889
vt 0.543860 0.388889
vt 0.543860 0.500000
vt 0.614035 0.500000
vt 0.614035 0.388889
vt 0.578947 0.388889
vt 0.578947 0.500000
vt 0.614035 0.500000
vt 0.614035 0.388889
vt 0.543860 0.388889
vt 0.543860 0.500000
vt 0.614035 0.500000
vt 0.614035 0.500000
vt 0.543860 0.500000
vt 0.543860 0.388889
vt 0.543860 0.500000
vt 0.614035 0.500000
vt 0.614035 0.388889
vt 0.614035 0.388889
vt 0.543860 0.388889
vt 0.543860 0.500000
vt 0.614035 0.500000
vt 0.578947 0.388889
vt 0.543860 0.388889
vt 0.543860 0.500000
vt 0.578947 0.500000
vt 0.614035 0.388889
vt 0.543860 0.388889
vt 0.543860 0.500000
vt 0.614035 0.500000
vt 0.614035 0.500000
vt 0.543860 0.500000
vt 0.543860 0.388889
vt 0.614035 0.500000
vt 0.614035 0.388889
vt 0.842105 0.055556
vt 0.824561 0.055556
vt 0.824561 0.944444
vt 0.842105 0.944444
vt 0.842105 0.055556
vt 0.824561 0.055556
vt 0.824561 0.944444
vt 0.842105 0.944444
vt 0.842105 0.055556
vt 0.824561 0.055556
vt 0.824561 0.944444
vt 0.842105 0.944444
vt 0.842105 0.055556
vt 0.824561 0.055556
vt 0.824561 0.944444
vt 0.842105 0.944444
vt 0.982456 -0.000000
vt 0.982456 0.055556
vt 1.000000 0.055556
vt 1.000000 -0.000000
vt 0.824561 -0.000000
vt 0.824561 0.055556
vt 0.842105 0.055556
vt 0.842105 -0.000000
vt 0.824561 -0.000000
vt 0.824561 0.055556
vt 0.842105 -0.000000
vt 0.824561 0.555556
vt 0.824561 0.611111
vt 0.842105 0.611111
vt 0.842105 0.555556
vt 0.824561 0.555556
vt 0.824561 0.611111
vt 0.842105 0.611111
vt 0.842105 0.555556
vt 0.824561 0.555556
vt 0.824561 0.611111
vt 0.842105 0.611111
vt 0.982456 0.944444
vt 0.982456 1.000000
vt 1.000000 1.000000
vt 1.000000 0.944444
vt 0.982456 0.944444
vt 0.982456 1.000000
vt 1.000000 1.000000
vt 1.000000 0.944444
vt 0.982456 0.944444
vt 0.982456 1.000000
vt 1.000000 1.000000
vt 0.824561 1.000000
vt 0.842105 1.000000
vt 0.842105 0.944444
vt 0.824561 1.000000
vt 0.842105 1.000000
vt 0.842105 0.944444
vt 0.824561 0.944444
vt 0.824561 1.000000
vt 0.842105 0.944444
vt 0.982456 0.944444
vt 0.842105 0.944444
vt 0.842105 1.000000
vt 0.982456 1.000000
vt 0.842105 1.000000
vt 0.982456 1.000000
vt 0.982456 0.944444
vt 0.842105 0.944444
vt 1.000000 0.500000
vt 0.982456 0.500000
vt 0.982456 0.944444
vt 1.000000 0.944444
vt 0.842105 0.111111
vt 0.824561 0.111111
vt 0.824561 0.555556
vt 0.842105 0.555556
vt 0.982456 0.944444
vt 0.842105 0.944444
vt 0.842105 1.000000
vt 0.982456 1.000000
vt 0.842105 1.000000
vt 0.982456 1.000000
vt 0.982456 0.944444
vt 0.842105 0.944444
vt 1.000000 0.500000
vt 0.982456 0.500000
vt 0.982456 0.944444
vt 1.000000 0.944444
vt 0.842105 0.111111
vt 0.824561 0.111111
vt 0.824561 0.555556
vt 0.842105 0.555556
vt 0.982456 0.000000
vt 0.842105 0.000000
vt 0.842105 0.055556
vt 0.982456 0.055556
vt 0.842105 0.055556
vt 0.982456 0.055556
vt 0.982456 0.000000
vt 0.842105 0.000000
vt 0.842105 0.888889
vt 0.842105 0.444444
vt 0.824561 0.444444
vt 0.824561 0.888889
vt 0.982456 0.055556
vt 0.982456 0.500000
vt 1.000000 0.500000
vt 1.000000 0.055556
vt 0.982456 0.000000
vt 0.842105 0.000000
vt 0.842105 0.055556
vt 0.982456 0.055556
vt 0.842105 0.055556
vt 0.982456 0.055556
vt 0.982456 0.000000
vt 0.842105 0.000000
vt 0.842105 0.888889
vt 0.842105 0.444444
vt 0.824561 0.444444
vt 0.824561 0.888889
vt 0.982456 0.055556
vt 0.982456 0.500000
vt 1.000000 0.500000
vt 1.000000 0.055556
vt 0.842105 0.055556
vt 0.824561 0.055556
vt 0.824561 0.944444
vt 0.842105 0.944444
vt 0.842105 0.055556
vt 0.824561 0.055556
vt 0.824561 0.944444
vt 0.842105 0.055556
vt 0.824561 0.055556
vt 0.824561 0.944444
vt 0.842105 0.944444
vt 0.842105 0.055556
vt 0.824561 0.055556
vt 0.824561 0.944444
vt 0.842105 0.944444
vt 0.842105 0.055556
vt 0.824561 0.055556
vt 0.824561 0.944444
vt 0.842105 0.944444
vt 0.842105 0.055556
vt 0.824561 0.055556
vt 0.824561 0.944444
vt 0.842105 0.055556
vt 0.824561 0.055556
vt 0.824561 0.944444
vt 0.842105 0.944444
vt 0.842105 0.055556
vt 0.824561 0.055556
vt 0.824561 0.944444
vt 0.842105 0.944444
vt 0.842105 0.055556
vt 0.824561 0.055556
vt 0.824561 0.944444
vt 0.842105 0.944444
vt 0.842105 0.055556
vt 0.824561 0.055556
vt 0.824561 0.944444
vt 0.842105 0.944444
vt 0.842105 0.055556
vt 0.824561 0.055556
vt 0.824561 0.944444
vt 0.842105 0.944444
vt 0.842105 0.055556
vt 0.824561 0.055556
vt 0.824561 0.944444
vt 0.842105 0.944444
vt 0.350877 0.500000
vt 0.526316 0.500000
vt 0.526316 0.388889
vt 0.350877 0.388889
vt 0.350877 0.500000
vt 0.526316 0.500000
vt 0.526316 0.388889
vt 0.350877 0.388889
vt 0.526316 0.388889
vt 0.350877 0.388889
vt 0.350877 0.500000
vt 0.526316 0.500000
vt 0.350877 0.500000
vt 0.526316 0.500000
vt 0.526316 0.388889
vt 0.350877 0.388889
vt 0.350877 0.500000
vt 0.526316 0.500000
vt 0.526316 0.388889
vt 0.350877 0.388889
vt 0.350877 0.500000
vt 0.526316 0.500000
vt 0.526316 0.388889
vt 0.350877 0.388889
vt 0.526316 0.388889
vt 0.350877 0.388889
vt 0.350877 0.500000
vt 0.526316 0.500000
vt 0.526316 0.388889
vt 0.350877 0.388889
vt 0.350877 0.500000
vt 0.526316 0.500000
vt 0.350877 0.500000
vt 0.526316 0.500000
vt 0.526316 0.388889
vt 0.350877 0.388889
vt 0.350877 0.500000
vt 0.350877 0.388889
vt 0.526316 0.388889
vt 0.526316 0.500000
vt 0.350877 0.500000
vt 0.526316 0.500000
vt 0.350877 0.500000
vt 0.526316 0.500000
vt 0.526316 0.388889
vt 0.350877 0.388889
vt 0.350877 0.388889
vt 0.350877 0.500000
vt 0.526316 0.500000
vt 0.526316 0.388889
vt 0.526316 0.500000
vt 0.526316 0.388889
vt 0.350877 0.388889
vt 0.350877 0.500000
vt 0.350877 0.500000
vt 0.526316 0.500000
vt 0.526316 0.388889
vt 0.350877 0.388889
vt 0.350877 0.500000
vt 0.526316 0.500000
vt 0.526316 0.388889
vt 0.350877 0.388889
vt 0.350877 0.388889
vt 0.526316 0.388889
vt 0.526316 0.388889
vt 0.350877 0.388889
vt 0.350877 0.500000
vt 0.526316 0.500000
vt 0.350877 0.500000
vt 0.526316 0.500000
vt 0.526316 0.388889
vt 0.350877 0.388889
vt 0.350877 0.500000
vt 0.526316 0.500000
vt 0.526316 0.388889
vt 0.350877 0.388889
vt 0.350877 0.388889
vt 0.350877 0.500000
vt 0.526316 0.500000
vt 0.526316 0.388889
vt 0.526316 0.500000
vt 0.526316 0.388889
vt 0.350877 0.388889
vt 0.350877 0.500000
vt 0.350877 0.500000
vt 0.526316 0.500000
vt 0.526316 0.388889
vt 0.350877 0.388889
vt 0.350877 0.500000
vt 0.526316 0.500000
vt 0.526316 0.388889
vt 0.350877 0.388889
vt 0.350877 0.388889
vt 0.350877 0.500000
vt 0.526316 0.500000
vt 0.526316 0.388889
vt 0.526316 0.500000
vt 0.526316 0.388889
vt 0.350877 0.388889
vt 0.350877 0.500000
vt 0.631579 0.833333
vt 0.684211 0.833333
vt 0.684211 0.166667
vt 0.631579 0.166667
vt 0.631579 0.833333
vt 0.684211 0.833333
vt 0.684211 0.166667
vt 0.631579 0.166667
vt 0.631579 0.833333
vt 0.684211 0.833333
vt 0.684211 0.166667
vt 0.631579 0.166667
vt 0.631579 0.833333
vt 0.684211 0.833333
vt 0.684211 0.166667
vt 0.631579 0.166667
vt 0.631579 1.000000
vt 0.684211 1.000000
vt 0.684211 0.833333
vt 0.631579 0.833333
vt 0.631579 1.000000
vt 0.684211 1.000000
vt 0.631579 0.833333
vt 0.631579 0.166667
vt 0.684211 0.166667
vt 0.684211 0.833333
vt 0.631579 0.833333
vt 0.631579 0.166667
vt 0.684211 0.166667
vt 0.684211 0.833333
vt 0.631579 0.833333
vt 0.631579 0.166667
vt 0.684211 0.166667
vt 0.684211 0.833333
vt 0.631579 0.833333
vt 0.631579 0.166667
vt 0.684211 0.166667
vt 0.684211 0.833333
vt 0.631579 1.000000
vt 0.684211 1.000000
vt 0.684211 0.833333
vt 0.684211 1.000000
vt 0.631579 1.000000
vt 0.631579 0.833333
vt 0.631579 0.833333
vt 0.631579 0.166667
vt 0.684211 0.166667
vt 0.684211 0.833333
vt 0.631579 0.833333
vt 0.631579 0.166667
vt 0.684211 0.166667
vt 0.684211 0.833333
vt 0.631579 0.833333
vt 0.631579 0.166667
vt 0.684211 0.166667
vt 0.684211 0.833333
vt 0.631579 0.833333
vt 0.631579 0.166667
vt 0.684211 0.166667
vt 0.684211 0.833333
vt 0.631579 1.000000
vt 0.684211 1.000000
vt 0.684211 0.833333
vt 0.684211 1.000000
vt 0.631579 1.000000
vt 0.631579 0.833333
vt 0.631579 0.833333
vt 0.684211 0.833333
vt 0.684211 0.166667
vt 0.631579 0.166667
vt 0.631579 0.833333
vt 0.684211 0.833333
vt 0.684211 0.166667
vt 0.631579 0.166667
vt 0.631579 0.833333
vt 0.684211 0.833333
vt 0.684211 0.166667
vt 0.631579 0.166667
vt 0.631579 0.833333
vt 0.684211 0.833333
vt 0.684211 0.166667
vt 0.631579 0.166667
vt 0.631579 1.000000
vt 0.684211 1.000000
vt 0.684211 0.833333
vt 0.631579 0.833333
vt 0.631579 1.000000
vt 0.684211 1.000000
vt 0.140351 0.111111
vt -0.000000 0.111111
vt 0.000000 1.000000
vt 0.140351 1.000000
vt 0.140351 0.111111
vt -0.000000 0.111111
vt 0.000000 1.000000
vt 0.140351 1.000000
vt 0.140351 0.111111
vt -0.000000 0.111111
vt 0.000000 1.000000
vt 0.140351 1.000000
vt 0.140351 0.111111
vt -0.000000 0.111111
vt 0.000000 1.000000
vt 0.140351 1.000000
vn -1.0000 0.0000 0.0000
vn 0.0000 0.0000 1.0000
vn 1.0000 0.0000 0.0000
vn 0.0000 0.0000 -1.0000
vn 0.0000 -1.0000 0.0000
vn 0.0000 1.0000 0.0000
vn -0.6974 0.1650 -0.6974
vn -0.7071 0.0000 0.7071
vn 0.6974 -0.1650 0.6974
vn 0.7071 0.0000 -0.7071
vn -0.1167 -0.9863 -0.1167
vn 0.1167 0.9863 0.1167
vn 0.6974 0.1650 -0.6974
vn 0.7071 -0.0000 0.7071
vn -0.6974 -0.1650 0.6974
vn -0.7071 -0.0000 -0.7071
vn 0.1167 -0.9863 -0.1167
vn -0.1167 0.9863 0.1167
vn -0.6974 0.1650 0.6974
vn 0.6974 -0.1650 -0.6974
vn -0.1167 -0.9863 0.1167
vn 0.1167 0.9863 -0.1167
vn 0.6974 0.1650 0.6974
vn -0.6974 -0.1650 -0.6974
vn 0.1167 -0.9863 0.1167
vn -0.1167 0.9863 -0.1167
usemtl None
s off
f 1/1/1 3/2/1 4/3/1 2/4/1
f 3/5/2 7/6/2 8/7/2 4/8/2
f 7/9/3 5/10/3 6/11/3 8/12/3
f 5/13/4 1/14/4 2/15/4 6/16/4
f 3/17/5 1/18/5 5/19/5 7/20/5
f 9/21/1 11/22/1 12/23/1 10/24/1
f 11/25/2 15/26/2 16/27/2 12/28/2
f 15/29/3 13/30/3 14/31/3 16/32/3
f 13/33/4 9/34/4 10/35/4 14/36/4
f 11/37/5 9/38/5 13/39/5 15/40/5
f 16/41/6 14/36/6 10/42/6 12/43/6
f 17/44/1 19/45/1 20/46/1 18/47/1
f 19/48/2 23/49/2 24/50/2 20/51/2
f 23/52/3 21/53/3 22/54/3 24/55/3
f 21/56/4 17/57/4 18/58/4 22/59/4
f 19/60/5 17/61/5 21/62/5 23/63/5
f 24/55/6 22/54/6 18/64/6 20/65/6
f 27/66/2 31/67/2 32/68/2 28/69/2
f 31/70/3 29/71/3 30/72/3 32/73/3
f 29/74/4 25/75/4 26/76/4 30/77/4
f 27/66/5 25/78/5 29/79/5 31/67/5
f 32/80/6 30/81/6 26/82/6 28/83/6
f 35/84/2 39/85/2 40/86/2 36/87/2
f 39/88/3 37/89/3 38/90/3 40/91/3
f 37/92/4 33/93/4 34/94/4 38/95/4
f 35/84/5 33/96/5 37/97/5 39/85/5
f 40/98/6 38/90/6 34/99/6 36/100/6
f 41/101/1 42/102/1 57/103/1 55/104/1
f 42/105/2 161/106/2 44/107/2 57/108/2
f 161/109/3 43/110/3 60/111/3 44/112/3
f 43/113/4 41/114/4 55/115/4 60/116/4
f 62/117/3 69/118/3 46/119/3 63/120/3
f 69/121/4 67/122/4 45/123/4 46/124/4
f 63/125/6 46/126/6 45/123/6 13/127/6
f 58/128/2 48/129/2 49/130/2 59/131/2
f 48/132/3 74/133/3 64/134/3 49/135/3
f 49/136/6 64/137/6 15/138/6 59/131/6
f 77/139/1 51/140/1 52/141/1 50/142/1
f 51/143/2 53/144/2 54/145/2 52/146/2
f 54/147/6 11/148/6 50/149/6 52/146/6
f 55/115/1 57/150/1 65/151/1 56/152/1
f 60/111/4 55/153/4 56/154/4 61/155/4
f 9/156/6 61/157/6 56/154/6 65/158/6
f 53/159/2 58/160/2 59/161/2 54/162/2
f 47/163/4 162/164/4 11/165/4 15/166/4
f 53/167/5 162/168/5 47/169/5 58/170/5
f 59/171/6 15/172/6 11/173/6 54/174/6
f 44/175/2 164/176/2 13/177/2 9/178/2
f 67/179/4 60/180/4 61/181/4 45/182/4
f 44/183/5 60/184/5 67/185/5 164/186/5
f 13/187/6 45/188/6 61/189/6 9/190/6
f 164/191/1 47/192/1 15/193/1 13/194/1
f 74/195/3 62/196/3 63/197/3 64/198/3
f 47/199/5 164/200/5 62/201/5 74/202/5
f 64/203/6 63/204/6 13/205/6 15/206/6
f 57/207/1 77/208/1 50/209/1 65/210/1
f 162/211/3 44/212/3 9/213/3 11/214/3
f 77/215/5 57/216/5 44/217/5 162/218/5
f 11/219/6 9/220/6 65/221/6 50/222/6
f 66/223/1 163/224/1 164/225/1 67/226/1
f 163/227/2 70/228/2 62/229/2 164/176/2
f 70/230/3 68/231/3 69/232/3 62/233/3
f 68/234/4 66/235/4 67/236/4 69/237/4
f 71/238/1 72/239/1 58/240/1 47/241/1
f 72/242/2 75/243/2 48/244/2 58/160/2
f 75/245/3 73/246/3 74/247/3 48/248/3
f 73/249/4 71/250/4 47/251/4 74/252/4
f 76/253/1 78/254/1 51/255/1 77/256/1
f 78/257/2 80/258/2 53/259/2 51/260/2
f 80/261/3 79/262/3 162/263/3 53/264/3
f 79/265/4 76/266/4 77/267/4 162/268/4
f 104/269/1 95/270/1 96/271/1 81/272/1
f 84/273/3 82/274/3 83/275/3 85/276/3
f 95/277/5 104/278/5 82/279/5 84/280/5
f 85/281/6 83/282/6 81/283/6 96/284/6
f 86/285/1 88/286/1 89/287/1 87/288/1
f 91/289/3 90/290/3 101/291/3 92/292/3
f 88/293/5 86/294/5 90/295/5 91/296/5
f 92/297/6 101/298/6 87/299/6 89/300/6
f 93/301/2 97/302/2 98/303/2 94/304/2
f 95/305/4 91/296/4 92/297/4 96/284/4
f 93/306/5 91/289/5 95/270/5 97/307/5
f 98/308/6 96/271/6 92/292/6 94/309/6
f 90/295/2 104/310/2 81/283/2 101/298/2
f 102/311/4 99/312/4 100/313/4 103/314/4
f 90/315/5 99/316/5 102/317/5 104/318/5
f 81/319/6 103/320/6 100/321/6 101/322/6
f 105/323/1 107/324/1 108/325/1 106/326/1
f 111/327/3 109/328/3 110/329/3 112/330/3
f 107/331/5 105/323/5 109/328/5 111/332/5
f 112/333/6 110/334/6 106/335/6 108/336/6
f 115/337/2 119/338/2 120/339/2 116/340/2
f 117/341/4 113/342/4 114/343/4 118/344/4
f 115/345/5 113/346/5 117/347/5 119/348/5
f 120/349/6 118/350/6 114/351/6 116/352/6
f 123/353/2 127/354/2 128/355/2 124/356/2
f 125/357/4 121/358/4 122/359/4 126/360/4
f 123/361/5 121/362/5 125/363/5 127/364/5
f 128/365/6 126/366/6 122/367/6 124/368/6
f 129/369/7 131/370/7 132/371/7 130/372/7
f 131/373/8 135/374/8 136/375/8 132/376/8
f 135/377/9 133/378/9 134/379/9 136/380/9
f 133/381/10 129/382/10 130/383/10 134/384/10
f 131/385/11 129/386/11 133/378/11 135/377/11
f 136/387/12 134/388/12 130/389/12 132/390/12
f 137/391/13 138/392/13 140/393/13 139/394/13
f 139/395/14 140/396/14 144/397/14 143/398/14
f 143/399/15 144/400/15 142/401/15 141/402/15
f 141/403/16 142/404/16 138/405/16 137/406/16
f 139/407/17 143/399/17 141/402/17 137/408/17
f 144/409/18 140/410/18 138/411/18 142/412/18
f 145/413/19 146/414/19 148/415/19 147/416/19
f 147/417/16 148/418/16 152/419/16 151/420/16
f 151/421/20 152/422/20 150/423/20 149/424/20
f 149/425/14 150/426/14 146/427/14 145/428/14
f 147/429/21 151/421/21 149/424/21 145/430/21
f 152/431/22 148/432/22 146/433/22 150/434/22
f 153/435/23 155/436/23 156/437/23 154/438/23
f 155/439/10 159/440/10 160/441/10 156/442/10
f 159/443/24 157/444/24 158/445/24 160/446/24
f 157/447/8 153/448/8 154/449/8 158/450/8
f 155/451/25 153/452/25 157/444/25 159/443/25
f 160/453/26 158/454/26 154/455/26 156/456/26
f 161/457/1 79/458/1 162/459/1 44/460/1
f 79/461/2 71/462/2 47/463/2 162/464/2
f 71/465/3 163/466/3 164/467/3 47/468/3
f 163/469/4 161/470/4 44/471/4 164/472/4
