# Original model Created by Flaxbeard. Converted to OBJ by TwistedGate.

mtllib autolubricator.mtl
o AutoLubricator_p4
v 0.250000 0.437500 0.250000
v 0.250000 0.750000 0.250000
v 0.250000 0.437500 0.750000
v 0.250000 0.750000 0.750000
v 0.750000 0.437500 0.250000
v 0.750000 0.750000 0.250000
v 0.750000 0.437500 0.750000
v 0.750000 0.750000 0.750000
v 0.250000 1.937500 0.250000
v 0.250000 2.000000 0.250000
v 0.250000 1.937500 0.750000
v 0.250000 2.000000 0.750000
v 0.750000 1.937500 0.250000
v 0.750000 2.000000 0.250000
v 0.750000 1.937500 0.750000
v 0.750000 2.000000 0.750000
v 0.125000 0.750000 0.125000
v 0.125000 0.875000 0.125000
v 0.125000 0.750000 0.875000
v 0.125000 0.875000 0.875000
v 0.875000 0.750000 0.125000
v 0.875000 0.875000 0.125000
v 0.875000 0.750000 0.875000
v 0.875000 0.875000 0.875000
v 0.750000 0.500000 0.562500
v 0.750000 0.625000 0.562500
v 0.750000 0.500000 0.687500
v 0.750000 0.625000 0.687500
v 1.000000 0.500000 0.562500
v 1.000000 0.625000 0.562500
v 1.000000 0.500000 0.687500
v 1.000000 0.625000 0.687500
v 0.750000 0.500000 0.312500
v 0.750000 0.625000 0.312500
v 0.750000 0.500000 0.437500
v 0.750000 0.625000 0.437500
v 1.000000 0.500000 0.312500
v 1.000000 0.625000 0.312500
v 1.000000 0.500000 0.437500
v 1.000000 0.625000 0.437500
v 0.187500 0.875000 0.187500
v 0.187500 0.875000 0.250000
v 0.250000 0.875000 0.187500
v 0.250000 1.875000 0.250000
v 0.750000 1.937500 0.187500
v 0.812500 1.937500 0.187500
v 0.750000 1.875000 0.750000
v 0.812500 1.875000 0.812500
v 0.812500 1.937500 0.812500
v 0.187500 1.937500 0.750000
v 0.187500 1.875000 0.812500
v 0.187500 1.937500 0.812500
v 0.250000 1.875000 0.812500
v 0.250000 1.937500 0.812500
v 0.187500 1.875000 0.187500
v 0.187500 1.937500 0.187500
v 0.187500 1.875000 0.250000
v 0.750000 1.875000 0.812500
v 0.750000 1.937500 0.812500
v 0.250000 1.875000 0.187500
v 0.250000 1.937500 0.187500
v 0.812500 1.875000 0.250000
v 0.812500 1.937500 0.250000
v 0.812500 1.937500 0.750000
v 0.187500 1.937500 0.250000
v 0.750000 0.875000 0.187500
v 0.750000 1.875000 0.187500
v 0.812500 0.875000 0.187500
v 0.812500 1.875000 0.187500
v 0.812500 0.875000 0.250000
v 0.750000 0.875000 0.750000
v 0.750000 0.875000 0.812500
v 0.812500 0.875000 0.750000
v 0.812500 1.875000 0.750000
v 0.812500 0.875000 0.812500
v 0.187500 0.875000 0.750000
v 0.187500 1.875000 0.750000
v 0.187500 0.875000 0.812500
v 0.250000 0.875000 0.750000
v 0.250000 0.875000 0.812500
v 0.812500 0.343750 0.187500
v 0.937500 0.218750 0.187500
v 0.937500 0.343750 0.187500
v 0.937500 0.218750 0.812500
v 0.937500 0.343750 0.812500
v 0.062500 0.218750 0.187500
v 0.062500 0.343750 0.187500
v 0.062500 0.218750 0.812500
v 0.062500 0.343750 0.812500
v 0.187500 0.218750 0.187500
v 0.187500 0.218750 0.812500
v 0.187500 0.343750 0.812500
v 0.187500 0.218750 0.937500
v 0.187500 0.343750 0.937500
v 0.812500 0.218750 0.812500
v 0.812500 0.343750 0.812500
v 0.812500 0.218750 0.937500
v 0.812500 0.343750 0.937500
v 0.187500 0.218750 0.062500
v 0.187500 0.343750 0.062500
v 0.187500 0.343750 0.187500
v 0.812500 0.218750 0.062500
v 0.812500 0.343750 0.062500
v 0.812500 0.218750 0.187500
v 0.109375 0.562500 0.187500
v 0.109375 0.687500 0.187500
v 0.109375 0.562500 0.812500
v 0.109375 0.687500 0.812500
v 0.234375 0.562500 0.187500
v 0.234375 0.687500 0.187500
v 0.234375 0.562500 0.812500
v 0.234375 0.687500 0.812500
v 0.187500 0.562500 0.765625
v 0.187500 0.687500 0.765625
v 0.187500 0.562500 0.890625
v 0.187500 0.687500 0.890625
v 0.812500 0.562500 0.765625
v 0.812500 0.687500 0.765625
v 0.812500 0.562500 0.890625
v 0.812500 0.687500 0.890625
v 0.187500 0.562500 0.109375
v 0.187500 0.687500 0.109375
v 0.187500 0.562500 0.234375
v 0.187500 0.687500 0.234375
v 0.812500 0.562500 0.109375
v 0.812500 0.687500 0.109375
v 0.812500 0.562500 0.234375
v 0.812500 0.687500 0.234375
v 0.134707 0.015084 -0.000540
v 0.222236 0.754798 0.086989
v 0.002124 0.015084 0.132042
v 0.089654 0.754798 0.219572
v 0.265471 -0.015863 0.130224
v 0.353000 0.723852 0.217754
v 0.132888 -0.015863 0.262806
v 0.220418 0.723852 0.350336
v 0.865293 0.015084 -0.000540
v 0.777764 0.754798 0.086989
v 0.997876 0.015084 0.132042
v 0.910346 0.754798 0.219572
v 0.734529 -0.015863 0.130224
v 0.647000 0.723852 0.217754
v 0.867112 -0.015863 0.262806
v 0.779582 0.723852 0.350336
v 0.134707 0.015084 1.000540
v 0.222236 0.754798 0.913011
v 0.002124 0.015084 0.867958
v 0.089654 0.754798 0.780428
v 0.265471 -0.015863 0.869776
v 0.353000 0.723852 0.782246
v 0.132888 -0.015863 0.737194
v 0.220418 0.723852 0.649664
v 0.865293 0.015084 1.000540
v 0.777764 0.754798 0.913011
v 0.997876 0.015084 0.867958
v 0.910346 0.754798 0.780428
v 0.734529 -0.015863 0.869776
v 0.647000 0.723852 0.782246
v 0.867112 -0.015863 0.737194
v 0.779582 0.723852 0.649664
v 0.250000 0.875000 0.250000
v 0.250000 1.875000 0.750000
v 0.750000 0.875000 0.250000
v 0.750000 1.875000 0.250000
v 0.246094 1.875000 0.246094
v 0.753906 1.875000 0.753906
v 0.753906 0.875000 0.753906
v 0.246094 0.875000 0.753906
v 0.246094 0.875000 0.246094
v 0.246094 1.875000 0.753906
v 0.753906 0.875000 0.246094
v 0.753906 1.875000 0.246094
vt 0.250000 0.000000
vt 0.000000 0.000000
vt 0.000000 0.156250
vt 0.250000 0.156250
vt 0.250000 0.000000
vt 0.000000 0.000000
vt 0.000000 0.156250
vt 0.250000 0.156250
vt 0.250000 0.000000
vt 0.000000 0.000000
vt 0.000000 0.156250
vt 0.250000 0.156250
vt 0.250000 0.000000
vt 0.000000 0.000000
vt 0.000000 0.156250
vt 0.250000 0.156250
vt 0.250000 0.156250
vt 0.000000 0.156250
vt 0.000000 0.406250
vt 0.250000 0.406250
vt 0.687500 0.406250
vt 0.437500 0.406250
vt 0.437500 0.437500
vt 0.687500 0.437500
vt 0.687500 0.406250
vt 0.437500 0.406250
vt 0.437500 0.437500
vt 0.687500 0.437500
vt 0.687500 0.406250
vt 0.437500 0.406250
vt 0.437500 0.437500
vt 0.687500 0.437500
vt 0.687500 0.406250
vt 0.437500 0.406250
vt 0.437500 0.437500
vt 0.687500 0.437500
vt 0.937500 0.750000
vt 0.687500 0.750000
vt 0.687500 1.000000
vt 0.937500 1.000000
vt 0.937500 0.500000
vt 0.687500 0.500000
vt 0.687500 0.750000
vt 0.937500 0.750000
vt 0.687500 0.562500
vt 0.312500 0.562500
vt 0.312500 0.656250
vt 0.687500 0.656250
vt 0.687500 0.562500
vt 0.312500 0.562500
vt 0.312500 0.656250
vt 0.687500 0.656250
vt 0.687500 0.562500
vt 0.312500 0.562500
vt 0.312500 0.656250
vt 0.687500 0.656250
vt 0.687500 0.562500
vt 0.312500 0.562500
vt 0.312500 0.656250
vt 0.687500 0.656250
vt 0.687500 0.656250
vt 0.312500 0.656250
vt 0.312500 1.000000
vt 0.687500 1.000000
vt 0.312500 1.000000
vt 0.687500 1.000000
vt 0.656250 0.468750
vt 0.531250 0.468750
vt 0.531250 0.531250
vt 0.656250 0.531250
vt 0.656250 0.468750
vt 0.593750 0.468750
vt 0.593750 0.531250
vt 0.656250 0.531250
vt 0.656250 0.468750
vt 0.531250 0.468750
vt 0.531250 0.531250
vt 0.656250 0.531250
vt 0.656250 0.531250
vt 0.531250 0.531250
vt 0.531250 0.468750
vt 0.531250 0.531250
vt 0.656250 0.531250
vt 0.656250 0.468750
vt 0.656250 0.468750
vt 0.531250 0.468750
vt 0.531250 0.531250
vt 0.656250 0.531250
vt 0.593750 0.468750
vt 0.531250 0.468750
vt 0.531250 0.531250
vt 0.593750 0.531250
vt 0.656250 0.468750
vt 0.531250 0.468750
vt 0.531250 0.531250
vt 0.656250 0.531250
vt 0.656250 0.531250
vt 0.531250 0.531250
vt 0.531250 0.468750
vt 0.656250 0.531250
vt 0.656250 0.468750
vt 0.031250 0.468750
vt 0.000000 0.468750
vt 0.000000 0.968750
vt 0.031250 0.968750
vt 0.031250 0.468750
vt 0.000000 0.468750
vt 0.000000 0.968750
vt 0.031250 0.968750
vt 0.031250 0.468750
vt 0.000000 0.468750
vt 0.000000 0.968750
vt 0.031250 0.968750
vt 0.031250 0.468750
vt 0.000000 0.468750
vt 0.000000 0.968750
vt 0.031250 0.968750
vt 0.281250 0.437500
vt 0.281250 0.468750
vt 0.312500 0.468750
vt 0.312500 0.437500
vt 0.000000 0.437500
vt 0.000000 0.468750
vt 0.031250 0.468750
vt 0.031250 0.437500
vt 0.000000 0.437500
vt 0.000000 0.468750
vt 0.031250 0.437500
vt 0.000000 0.750000
vt 0.000000 0.781250
vt 0.031250 0.781250
vt 0.031250 0.750000
vt 0.000000 0.750000
vt 0.000000 0.781250
vt 0.031250 0.781250
vt 0.031250 0.750000
vt 0.000000 0.750000
vt 0.000000 0.781250
vt 0.031250 0.781250
vt 0.281250 0.968750
vt 0.281250 1.000000
vt 0.312500 1.000000
vt 0.312500 0.968750
vt 0.281250 0.968750
vt 0.281250 1.000000
vt 0.312500 1.000000
vt 0.312500 0.968750
vt 0.281250 0.968750
vt 0.281250 1.000000
vt 0.312500 1.000000
vt 0.000000 1.000000
vt 0.031250 1.000000
vt 0.031250 0.968750
vt 0.000000 1.000000
vt 0.031250 1.000000
vt 0.031250 0.968750
vt 0.000000 0.968750
vt 0.000000 1.000000
vt 0.031250 0.968750
vt 0.281250 0.968750
vt 0.031250 0.968750
vt 0.031250 1.000000
vt 0.281250 1.000000
vt 0.031250 1.000000
vt 0.281250 1.000000
vt 0.281250 0.968750
vt 0.031250 0.968750
vt 0.312500 0.718750
vt 0.281250 0.718750
vt 0.281250 0.968750
vt 0.312500 0.968750
vt 0.031250 0.500000
vt 0.000000 0.500000
vt 0.000000 0.750000
vt 0.031250 0.750000
vt 0.281250 0.968750
vt 0.031250 0.968750
vt 0.031250 1.000000
vt 0.281250 1.000000
vt 0.031250 1.000000
vt 0.281250 1.000000
vt 0.281250 0.968750
vt 0.031250 0.968750
vt 0.312500 0.718750
vt 0.281250 0.718750
vt 0.281250 0.968750
vt 0.312500 0.968750
vt 0.031250 0.500000
vt 0.000000 0.500000
vt 0.000000 0.750000
vt 0.031250 0.750000
vt 0.281250 0.437500
vt 0.031250 0.437500
vt 0.031250 0.468750
vt 0.281250 0.468750
vt 0.031250 0.468750
vt 0.281250 0.468750
vt 0.281250 0.437500
vt 0.031250 0.437500
vt 0.031250 0.937500
vt 0.031250 0.687500
vt 0.000000 0.687500
vt 0.000000 0.937500
vt 0.281250 0.468750
vt 0.281250 0.718750
vt 0.312500 0.718750
vt 0.312500 0.468750
vt 0.281250 0.437500
vt 0.031250 0.437500
vt 0.031250 0.468750
vt 0.281250 0.468750
vt 0.031250 0.468750
vt 0.281250 0.468750
vt 0.281250 0.437500
vt 0.031250 0.437500
vt 0.031250 0.937500
vt 0.031250 0.687500
vt 0.000000 0.687500
vt 0.000000 0.937500
vt 0.281250 0.468750
vt 0.281250 0.718750
vt 0.312500 0.718750
vt 0.312500 0.468750
vt 0.031250 0.468750
vt 0.000000 0.468750
vt 0.000000 0.968750
vt 0.031250 0.968750
vt 0.031250 0.468750
vt 0.000000 0.468750
vt 0.000000 0.968750
vt 0.031250 0.468750
vt 0.000000 0.468750
vt 0.000000 0.968750
vt 0.031250 0.968750
vt 0.031250 0.468750
vt 0.000000 0.468750
vt 0.000000 0.968750
vt 0.031250 0.968750
vt 0.031250 0.468750
vt 0.000000 0.468750
vt 0.000000 0.968750
vt 0.031250 0.968750
vt 0.031250 0.468750
vt 0.000000 0.468750
vt 0.000000 0.968750
vt 0.031250 0.468750
vt 0.000000 0.468750
vt 0.000000 0.968750
vt 0.031250 0.968750
vt 0.031250 0.468750
vt 0.000000 0.468750
vt 0.000000 0.968750
vt 0.031250 0.968750
vt 0.031250 0.468750
vt 0.000000 0.468750
vt 0.000000 0.968750
vt 0.031250 0.968750
vt 0.031250 0.468750
vt 0.000000 0.468750
vt 0.000000 0.968750
vt 0.031250 0.968750
vt 0.031250 0.468750
vt 0.000000 0.468750
vt 0.000000 0.968750
vt 0.031250 0.968750
vt 0.031250 0.468750
vt 0.000000 0.468750
vt 0.000000 0.968750
vt 0.031250 0.968750
vt 0.437500 0.406250
vt 0.750000 0.406250
vt 0.750000 0.343750
vt 0.437500 0.343750
vt 0.437500 0.406250
vt 0.750000 0.406250
vt 0.750000 0.343750
vt 0.437500 0.343750
vt 0.750000 0.343750
vt 0.437500 0.343750
vt 0.437500 0.406250
vt 0.750000 0.406250
vt 0.437500 0.406250
vt 0.750000 0.406250
vt 0.750000 0.343750
vt 0.437500 0.343750
vt 0.437500 0.406250
vt 0.750000 0.406250
vt 0.750000 0.343750
vt 0.437500 0.343750
vt 0.437500 0.406250
vt 0.750000 0.406250
vt 0.750000 0.343750
vt 0.437500 0.343750
vt 0.750000 0.343750
vt 0.437500 0.343750
vt 0.437500 0.406250
vt 0.750000 0.406250
vt 0.750000 0.343750
vt 0.437500 0.343750
vt 0.437500 0.406250
vt 0.750000 0.406250
vt 0.437500 0.406250
vt 0.750000 0.406250
vt 0.750000 0.343750
vt 0.437500 0.343750
vt 0.437500 0.406250
vt 0.437500 0.343750
vt 0.750000 0.343750
vt 0.750000 0.406250
vt 0.437500 0.406250
vt 0.750000 0.406250
vt 0.437500 0.406250
vt 0.750000 0.406250
vt 0.750000 0.343750
vt 0.437500 0.343750
vt 0.437500 0.343750
vt 0.437500 0.406250
vt 0.750000 0.406250
vt 0.750000 0.343750
vt 0.750000 0.406250
vt 0.750000 0.343750
vt 0.437500 0.343750
vt 0.437500 0.406250
vt 0.437500 0.406250
vt 0.750000 0.406250
vt 0.750000 0.343750
vt 0.437500 0.343750
vt 0.437500 0.406250
vt 0.750000 0.406250
vt 0.750000 0.343750
vt 0.437500 0.343750
vt 0.437500 0.343750
vt 0.750000 0.343750
vt 0.750000 0.343750
vt 0.437500 0.343750
vt 0.437500 0.406250
vt 0.750000 0.406250
vt 0.437500 0.406250
vt 0.750000 0.406250
vt 0.750000 0.343750
vt 0.437500 0.343750
vt 0.437500 0.406250
vt 0.750000 0.406250
vt 0.750000 0.343750
vt 0.437500 0.343750
vt 0.437500 0.343750
vt 0.437500 0.406250
vt 0.750000 0.406250
vt 0.750000 0.343750
vt 0.750000 0.406250
vt 0.750000 0.343750
vt 0.437500 0.343750
vt 0.437500 0.406250
vt 0.437500 0.406250
vt 0.750000 0.406250
vt 0.750000 0.343750
vt 0.437500 0.343750
vt 0.437500 0.406250
vt 0.750000 0.406250
vt 0.750000 0.343750
vt 0.437500 0.343750
vt 0.437500 0.343750
vt 0.437500 0.406250
vt 0.750000 0.406250
vt 0.750000 0.343750
vt 0.750000 0.406250
vt 0.750000 0.343750
vt 0.437500 0.343750
vt 0.437500 0.406250
vt 0.312500 0.468750
vt 0.406250 0.468750
vt 0.406250 0.093750
vt 0.312500 0.093750
vt 0.312500 0.468750
vt 0.406250 0.468750
vt 0.406250 0.093750
vt 0.312500 0.093750
vt 0.312500 0.468750
vt 0.406250 0.468750
vt 0.406250 0.093750
vt 0.312500 0.093750
vt 0.312500 0.468750
vt 0.406250 0.468750
vt 0.406250 0.093750
vt 0.312500 0.093750
vt 0.312500 0.562500
vt 0.406250 0.562500
vt 0.406250 0.468750
vt 0.312500 0.468750
vt 0.312500 0.562500
vt 0.406250 0.562500
vt 0.312500 0.468750
vt 0.312500 0.093750
vt 0.406250 0.093750
vt 0.406250 0.468750
vt 0.312500 0.468750
vt 0.312500 0.093750
vt 0.406250 0.093750
vt 0.406250 0.468750
vt 0.312500 0.468750
vt 0.312500 0.093750
vt 0.406250 0.093750
vt 0.406250 0.468750
vt 0.312500 0.468750
vt 0.312500 0.093750
vt 0.406250 0.093750
vt 0.406250 0.468750
vt 0.312500 0.562500
vt 0.406250 0.562500
vt 0.406250 0.468750
vt 0.406250 0.562500
vt 0.312500 0.562500
vt 0.312500 0.468750
vt 0.312500 0.468750
vt 0.312500 0.093750
vt 0.406250 0.093750
vt 0.406250 0.468750
vt 0.312500 0.468750
vt 0.312500 0.093750
vt 0.406250 0.093750
vt 0.406250 0.468750
vt 0.312500 0.468750
vt 0.312500 0.093750
vt 0.406250 0.093750
vt 0.406250 0.468750
vt 0.312500 0.468750
vt 0.312500 0.093750
vt 0.406250 0.093750
vt 0.406250 0.468750
vt 0.312500 0.562500
vt 0.406250 0.562500
vt 0.406250 0.468750
vt 0.406250 0.562500
vt 0.312500 0.562500
vt 0.312500 0.468750
vt 0.312500 0.468750
vt 0.406250 0.468750
vt 0.406250 0.093750
vt 0.312500 0.093750
vt 0.312500 0.468750
vt 0.406250 0.468750
vt 0.406250 0.093750
vt 0.312500 0.093750
vt 0.312500 0.468750
vt 0.406250 0.468750
vt 0.406250 0.093750
vt 0.312500 0.093750
vt 0.312500 0.468750
vt 0.406250 0.468750
vt 0.406250 0.093750
vt 0.312500 0.093750
vt 0.312500 0.562500
vt 0.406250 0.562500
vt 0.406250 0.468750
vt 0.312500 0.468750
vt 0.312500 0.562500
vt 0.406250 0.562500
vt 0.281250 0.468750
vt 0.031250 0.468750
vt 0.031250 0.968750
vt 0.281250 0.968750
vt 0.281250 0.468750
vt 0.031250 0.468750
vt 0.031250 0.968750
vt 0.281250 0.968750
vt 0.281250 0.468750
vt 0.031250 0.468750
vt 0.031250 0.968750
vt 0.281250 0.968750
vt 0.281250 0.468750
vt 0.031250 0.468750
vt 0.031250 0.968750
vt 0.281250 0.968750
vn -1.0000 0.0000 0.0000
vn 0.0000 0.0000 1.0000
vn 1.0000 0.0000 0.0000
vn 0.0000 0.0000 -1.0000
vn 0.0000 -1.0000 0.0000
vn 0.0000 1.0000 0.0000
vn -0.6974 0.1650 -0.6974
vn -0.7071 0.0000 0.7071
vn 0.6974 -0.1650 0.6974
vn 0.7071 0.0000 -0.7071
vn -0.1167 -0.9863 -0.1167
vn 0.1167 0.9863 0.1167
vn 0.6974 0.1650 -0.6974
vn 0.7071 -0.0000 0.7071
vn -0.6974 -0.1650 0.6974
vn -0.7071 -0.0000 -0.7071
vn 0.1167 -0.9863 -0.1167
vn -0.1167 0.9863 0.1167
vn -0.6974 0.1650 0.6974
vn 0.6974 -0.1650 -0.6974
vn -0.1167 -0.9863 0.1167
vn 0.1167 0.9863 -0.1167
vn 0.6974 0.1650 0.6974
vn -0.6974 -0.1650 -0.6974
vn 0.1167 -0.9863 0.1167
vn -0.1167 0.9863 -0.1167
usemtl None
s off
f 1/1/1 3/2/1 4/3/1 2/4/1
f 3/5/2 7/6/2 8/7/2 4/8/2
f 7/9/3 5/10/3 6/11/3 8/12/3
f 5/13/4 1/14/4 2/15/4 6/16/4
f 3/17/5 1/18/5 5/19/5 7/20/5
f 9/21/1 11/22/1 12/23/1 10/24/1
f 11/25/2 15/26/2 16/27/2 12/28/2
f 15/29/3 13/30/3 14/31/3 16/32/3
f 13/33/4 9/34/4 10/35/4 14/36/4
f 11/37/5 9/38/5 13/39/5 15/40/5
f 16/41/6 14/42/6 10/43/6 12/44/6
f 17/45/1 19/46/1 20/47/1 18/48/1
f 19/49/2 23/50/2 24/51/2 20/52/2
f 23/53/3 21/54/3 22/55/3 24/56/3
f 21/57/4 17/58/4 18/59/4 22/60/4
f 19/61/5 17/62/5 21/63/5 23/64/5
f 24/56/6 22/55/6 18/65/6 20/66/6
f 27/67/2 31/68/2 32/69/2 28/70/2
f 31/71/3 29/72/3 30/73/3 32/74/3
f 29/75/4 25/76/4 26/77/4 30/78/4
f 27/67/5 25/79/5 29/80/5 31/68/5
f 32/81/6 30/82/6 26/83/6 28/84/6
f 35/85/2 39/86/2 40/87/2 36/88/2
f 39/89/3 37/90/3 38/91/3 40/92/3
f 37/93/4 33/94/4 34/95/4 38/96/4
f 35/85/5 33/97/5 37/98/5 39/86/5
f 40/99/6 38/91/6 34/100/6 36/101/6
f 41/102/1 42/103/1 57/104/1 55/105/1
f 42/106/2 161/107/2 44/108/2 57/109/2
f 161/110/3 43/111/3 60/112/3 44/113/3
f 43/114/4 41/115/4 55/116/4 60/117/4
f 62/118/3 69/119/3 46/120/3 63/121/3
f 69/122/4 67/123/4 45/124/4 46/125/4
f 63/126/6 46/127/6 45/124/6 13/128/6
f 58/129/2 48/130/2 49/131/2 59/132/2
f 48/133/3 74/134/3 64/135/3 49/136/3
f 49/137/6 64/138/6 15/139/6 59/132/6
f 77/140/1 51/141/1 52/142/1 50/143/1
f 51/144/2 53/145/2 54/146/2 52/147/2
f 54/148/6 11/149/6 50/150/6 52/147/6
f 55/116/1 57/151/1 65/152/1 56/153/1
f 60/112/4 55/154/4 56/155/4 61/156/4
f 9/157/6 61/158/6 56/155/6 65/159/6
f 53/160/2 58/161/2 59/162/2 54/163/2
f 47/164/4 162/165/4 11/166/4 15/167/4
f 53/168/5 162/169/5 47/170/5 58/171/5
f 59/172/6 15/173/6 11/174/6 54/175/6
f 44/176/2 164/177/2 13/178/2 9/179/2
f 67/180/4 60/181/4 61/182/4 45/183/4
f 44/184/5 60/185/5 67/186/5 164/187/5
f 13/188/6 45/189/6 61/190/6 9/191/6
f 164/192/1 47/193/1 15/194/1 13/195/1
f 74/196/3 62/197/3 63/198/3 64/199/3
f 47/200/5 164/201/5 62/202/5 74/203/5
f 64/204/6 63/205/6 13/206/6 15/207/6
f 57/208/1 77/209/1 50/210/1 65/211/1
f 162/212/3 44/213/3 9/214/3 11/215/3
f 77/216/5 57/217/5 44/218/5 162/219/5
f 11/220/6 9/221/6 65/222/6 50/223/6
f 66/224/1 163/225/1 164/226/1 67/227/1
f 163/228/2 70/229/2 62/230/2 164/177/2
f 70/231/3 68/232/3 69/233/3 62/234/3
f 68/235/4 66/236/4 67/237/4 69/238/4
f 71/239/1 72/240/1 58/241/1 47/242/1
f 72/243/2 75/244/2 48/245/2 58/161/2
f 75/246/3 73/247/3 74/248/3 48/249/3
f 73/250/4 71/251/4 47/252/4 74/253/4
f 76/254/1 78/255/1 51/256/1 77/257/1
f 78/258/2 80/259/2 53/260/2 51/261/2
f 80/262/3 79/263/3 162/264/3 53/265/3
f 79/266/4 76/267/4 77/268/4 162/269/4
f 104/270/1 95/271/1 96/272/1 81/273/1
f 84/274/3 82/275/3 83/276/3 85/277/3
f 95/278/5 104/279/5 82/280/5 84/281/5
f 85/282/6 83/283/6 81/284/6 96/285/6
f 86/286/1 88/287/1 89/288/1 87/289/1
f 91/290/3 90/291/3 101/292/3 92/293/3
f 88/294/5 86/295/5 90/296/5 91/297/5
f 92/298/6 101/299/6 87/300/6 89/301/6
f 93/302/2 97/303/2 98/304/2 94/305/2
f 95/306/4 91/297/4 92/298/4 96/285/4
f 93/307/5 91/290/5 95/271/5 97/308/5
f 98/309/6 96/272/6 92/293/6 94/310/6
f 90/296/2 104/311/2 81/284/2 101/299/2
f 102/312/4 99/313/4 100/314/4 103/315/4
f 90/316/5 99/317/5 102/318/5 104/319/5
f 81/320/6 103/321/6 100/322/6 101/323/6
f 105/324/1 107/325/1 108/326/1 106/327/1
f 111/328/3 109/329/3 110/330/3 112/331/3
f 107/332/5 105/324/5 109/329/5 111/333/5
f 112/334/6 110/335/6 106/336/6 108/337/6
f 115/338/2 119/339/2 120/340/2 116/341/2
f 117/342/4 113/343/4 114/344/4 118/345/4
f 115/346/5 113/347/5 117/348/5 119/349/5
f 120/350/6 118/351/6 114/352/6 116/353/6
f 123/354/2 127/355/2 128/356/2 124/357/2
f 125/358/4 121/359/4 122/360/4 126/361/4
f 123/362/5 121/363/5 125/364/5 127/365/5
f 128/366/6 126/367/6 122/368/6 124/369/6
f 129/370/7 131/371/7 132/372/7 130/373/7
f 131/374/8 135/375/8 136/376/8 132/377/8
f 135/378/9 133/379/9 134/380/9 136/381/9
f 133/382/10 129/383/10 130/384/10 134/385/10
f 131/386/11 129/387/11 133/379/11 135/378/11
f 136/388/12 134/389/12 130/390/12 132/391/12
f 137/392/13 138/393/13 140/394/13 139/395/13
f 139/396/14 140/397/14 144/398/14 143/399/14
f 143/400/15 144/401/15 142/402/15 141/403/15
f 141/404/16 142/405/16 138/406/16 137/407/16
f 139/408/17 143/400/17 141/403/17 137/409/17
f 144/410/18 140/411/18 138/412/18 142/413/18
f 145/414/19 146/415/19 148/416/19 147/417/19
f 147/418/16 148/419/16 152/420/16 151/421/16
f 151/422/20 152/423/20 150/424/20 149/425/20
f 149/426/14 150/427/14 146/428/14 145/429/14
f 147/430/21 151/422/21 149/425/21 145/431/21
f 152/432/22 148/433/22 146/434/22 150/435/22
f 153/436/23 155/437/23 156/438/23 154/439/23
f 155/440/10 159/441/10 160/442/10 156/443/10
f 159/444/24 157/445/24 158/446/24 160/447/24
f 157/448/8 153/449/8 154/450/8 158/451/8
f 155/452/25 153/453/25 157/445/25 159/444/25
f 160/454/26 158/455/26 154/456/26 156/457/26
f 169/458/1 168/459/1 170/460/1 165/461/1
f 168/462/2 167/463/2 166/464/2 170/465/2
f 167/466/3 171/467/3 172/468/3 166/469/3
f 171/470/4 169/471/4 165/472/4 172/473/4
