# Blender v2.79 (sub 0) OBJ File: 'AutoLubricator.blend'
# www.blender.org
mtllib autolubricator.mtl
o AutoLubricator_p4
v 0.250000 0.437500 0.250000
v 0.250000 0.750000 0.250000
v 0.250000 0.437500 0.750000
v 0.250000 0.750000 0.750000
v 0.750000 0.437500 0.250000
v 0.750000 0.750000 0.250000
v 0.750000 0.437500 0.750000
v 0.750000 0.750000 0.750000
v 0.250000 1.937500 0.250000
v 0.250000 2.000000 0.250000
v 0.250000 1.937500 0.750000
v 0.250000 2.000000 0.750000
v 0.750000 1.937500 0.250000
v 0.750000 2.000000 0.250000
v 0.750000 1.937500 0.750000
v 0.750000 2.000000 0.750000
v 0.125000 0.750000 0.125000
v 0.125000 0.875000 0.125000
v 0.125000 0.750000 0.875000
v 0.125000 0.875000 0.875000
v 0.875000 0.750000 0.125000
v 0.875000 0.875000 0.125000
v 0.875000 0.750000 0.875000
v 0.875000 0.875000 0.875000
v 0.750000 0.500000 0.562500
v 0.750000 0.625000 0.562500
v 0.750000 0.500000 0.687500
v 0.750000 0.625000 0.687500
v 1.000000 0.500000 0.562500
v 1.000000 0.625000 0.562500
v 1.000000 0.500000 0.687500
v 1.000000 0.625000 0.687500
v 0.750000 0.500000 0.312500
v 0.750000 0.625000 0.312500
v 0.750000 0.500000 0.437500
v 0.750000 0.625000 0.437500
v 1.000000 0.500000 0.312500
v 1.000000 0.625000 0.312500
v 1.000000 0.500000 0.437500
v 1.000000 0.625000 0.437500
v 0.187500 0.875000 0.187500
v 0.187500 0.875000 0.250000
v 0.250000 0.875000 0.187500
v 0.250000 0.875000 0.250000
v 0.250000 1.875000 0.250000
v 0.750000 1.937500 0.187500
v 0.812500 1.937500 0.187500
v 0.750000 1.875000 0.750000
v 0.812500 1.875000 0.812500
v 0.812500 1.937500 0.812500
v 0.187500 1.937500 0.750000
v 0.187500 1.875000 0.812500
v 0.187500 1.937500 0.812500
v 0.250000 1.875000 0.812500
v 0.250000 1.937500 0.812500
v 0.187500 1.875000 0.187500
v 0.187500 1.937500 0.187500
v 0.187500 1.875000 0.250000
v 0.250000 1.875000 0.750000
v 0.250000 1.937500 0.750000
v 0.750000 1.875000 0.812500
v 0.750000 1.937500 0.812500
v 0.250000 1.875000 0.187500
v 0.250000 1.937500 0.187500
v 0.250000 1.937500 0.250000
v 0.750000 1.937500 0.250000
v 0.750000 1.937500 0.750000
v 0.812500 1.875000 0.250000
v 0.812500 1.937500 0.250000
v 0.812500 1.937500 0.750000
v 0.187500 1.937500 0.250000
v 0.750000 0.875000 0.187500
v 0.750000 1.875000 0.187500
v 0.750000 0.875000 0.250000
v 0.750000 1.875000 0.250000
v 0.812500 0.875000 0.187500
v 0.812500 1.875000 0.187500
v 0.812500 0.875000 0.250000
v 0.750000 0.875000 0.750000
v 0.750000 0.875000 0.812500
v 0.812500 0.875000 0.750000
v 0.812500 1.875000 0.750000
v 0.812500 0.875000 0.812500
v 0.187500 0.875000 0.750000
v 0.187500 1.875000 0.750000
v 0.187500 0.875000 0.812500
v 0.250000 0.875000 0.750000
v 0.250000 0.875000 0.812500
v 0.812500 0.218750 0.187500
v 0.812500 0.343750 0.187500
v 0.812500 0.218750 0.812500
v 0.812500 0.343750 0.812500
v 0.937500 0.218750 0.187500
v 0.937500 0.343750 0.187500
v 0.937500 0.218750 0.812500
v 0.937500 0.343750 0.812500
v 0.062500 0.218750 0.187500
v 0.062500 0.343750 0.187500
v 0.062500 0.218750 0.812500
v 0.062500 0.343750 0.812500
v 0.187500 0.218750 0.187500
v 0.187500 0.343750 0.187500
v 0.187500 0.218750 0.812500
v 0.187500 0.343750 0.812500
v 0.187500 0.218750 0.812500
v 0.187500 0.343750 0.812500
v 0.187500 0.218750 0.937500
v 0.187500 0.343750 0.937500
v 0.812500 0.218750 0.812500
v 0.812500 0.343750 0.812500
v 0.812500 0.218750 0.937500
v 0.812500 0.343750 0.937500
v 0.187500 0.218750 0.062500
v 0.187500 0.343750 0.062500
v 0.187500 0.218750 0.187500
v 0.187500 0.343750 0.187500
v 0.812500 0.218750 0.062500
v 0.812500 0.343750 0.062500
v 0.812500 0.218750 0.187500
v 0.812500 0.343750 0.187500
v 0.109375 0.562500 0.187500
v 0.109375 0.687500 0.187500
v 0.109375 0.562500 0.812500
v 0.109375 0.687500 0.812500
v 0.234375 0.562500 0.187500
v 0.234375 0.687500 0.187500
v 0.234375 0.562500 0.812500
v 0.234375 0.687500 0.812500
v 0.187500 0.562500 0.765625
v 0.187500 0.687500 0.765625
v 0.187500 0.562500 0.890625
v 0.187500 0.687500 0.890625
v 0.812500 0.562500 0.765625
v 0.812500 0.687500 0.765625
v 0.812500 0.562500 0.890625
v 0.812500 0.687500 0.890625
v 0.187500 0.562500 0.109375
v 0.187500 0.687500 0.109375
v 0.187500 0.562500 0.234375
v 0.187500 0.687500 0.234375
v 0.812500 0.562500 0.109375
v 0.812500 0.687500 0.109375
v 0.812500 0.562500 0.234375
v 0.812500 0.687500 0.234375
v 0.134707 0.015084 -0.000540
v 0.222236 0.754798 0.086989
v 0.002124 0.015084 0.132042
v 0.089654 0.754798 0.219572
v 0.265471 -0.015863 0.130224
v 0.353000 0.723852 0.217754
v 0.132888 -0.015863 0.262806
v 0.220418 0.723852 0.350336
v 0.865293 0.015084 -0.000540
v 0.777764 0.754798 0.086989
v 0.997876 0.015084 0.132042
v 0.910346 0.754798 0.219572
v 0.734529 -0.015863 0.130224
v 0.647000 0.723852 0.217754
v 0.867112 -0.015863 0.262806
v 0.779582 0.723852 0.350336
v 0.134707 0.015084 1.000540
v 0.222236 0.754798 0.913011
v 0.002124 0.015084 0.867958
v 0.089654 0.754798 0.780428
v 0.265471 -0.015863 0.869776
v 0.353000 0.723852 0.782246
v 0.132888 -0.015863 0.737194
v 0.220418 0.723852 0.649664
v 0.865293 0.015084 1.000540
v 0.777764 0.754798 0.913011
v 0.997876 0.015084 0.867958
v 0.910346 0.754798 0.780428
v 0.734529 -0.015863 0.869776
v 0.647000 0.723852 0.782246
v 0.867112 -0.015863 0.737194
v 0.779582 0.723852 0.649664
v 0.250000 0.875000 0.250000
v 0.250000 1.875000 0.250000
v 0.250000 0.875000 0.750000
v 0.250000 1.875000 0.750000
v 0.750000 0.875000 0.250000
v 0.750000 1.875000 0.250000
v 0.750000 0.875000 0.750000
v 0.750000 1.875000 0.750000
vt 0.125000 0.140625
vt 0.000000 0.140625
vt 0.000000 0.218750
vt 0.125000 0.218750
vt 0.125000 0.140625
vt 0.000000 0.140625
vt 0.000000 0.218750
vt 0.125000 0.218750
vt 0.125000 0.140625
vt 0.000000 0.140625
vt 0.000000 0.218750
vt 0.125000 0.218750
vt 0.125000 0.140625
vt 0.000000 0.140625
vt 0.000000 0.218750
vt 0.125000 0.218750
vt 0.250000 0.218750
vt 0.125000 0.218750
vt 0.125000 0.343750
vt 0.250000 0.343750
vt 0.750000 0.562500
vt 0.625000 0.562500
vt 0.625000 0.578125
vt 0.750000 0.578125
vt 0.750000 0.562500
vt 0.625000 0.562500
vt 0.625000 0.578125
vt 0.750000 0.578125
vt 0.750000 0.562500
vt 0.625000 0.562500
vt 0.625000 0.578125
vt 0.750000 0.578125
vt 0.750000 0.562500
vt 0.625000 0.562500
vt 0.625000 0.578125
vt 0.750000 0.578125
vt 0.750000 0.578125
vt 0.625000 0.578125
vt 0.625000 0.703125
vt 0.750000 0.703125
vt 0.875000 0.578125
vt 0.750000 0.703125
vt 0.875000 0.703125
vt 0.000000 0.375000
vt 0.187500 0.375000
vt 0.187500 0.343750
vt 0.000000 0.343750
vt 0.000000 0.375000
vt 0.187500 0.375000
vt 0.187500 0.343750
vt 0.000000 0.343750
vt 0.000000 0.375000
vt 0.187500 0.375000
vt 0.187500 0.343750
vt 0.000000 0.343750
vt 0.000000 0.375000
vt 0.187500 0.375000
vt 0.187500 0.343750
vt 0.000000 0.343750
vt 0.375000 0.375000
vt 0.187500 0.562500
vt 0.375000 0.562500
vt 0.375000 0.375000
vt 0.187500 0.375000
vt 0.187500 0.562500
vt 0.375000 0.562500
vt 0.468750 0.312500
vt 0.406250 0.312500
vt 0.406250 0.343750
vt 0.468750 0.343750
vt 0.468750 0.312500
vt 0.437500 0.312500
vt 0.437500 0.343750
vt 0.468750 0.343750
vt 0.468750 0.312500
vt 0.406250 0.312500
vt 0.406250 0.343750
vt 0.468750 0.343750
vt 0.468750 0.343750
vt 0.406250 0.343750
vt 0.406250 0.312500
vt 0.406250 0.343750
vt 0.468750 0.343750
vt 0.468750 0.312500
vt 0.468750 0.312500
vt 0.406250 0.312500
vt 0.406250 0.343750
vt 0.468750 0.343750
vt 0.437500 0.312500
vt 0.406250 0.312500
vt 0.406250 0.343750
vt 0.437500 0.343750
vt 0.468750 0.312500
vt 0.406250 0.312500
vt 0.406250 0.343750
vt 0.468750 0.343750
vt 0.468750 0.343750
vt 0.406250 0.343750
vt 0.406250 0.312500
vt 0.468750 0.343750
vt 0.468750 0.312500
vt 0.531250 0.015625
vt 0.515625 0.015625
vt 0.515625 0.265625
vt 0.531250 0.265625
vt 0.531250 0.015625
vt 0.515625 0.015625
vt 0.515625 0.265625
vt 0.531250 0.265625
vt 0.531250 0.015625
vt 0.515625 0.015625
vt 0.515625 0.265625
vt 0.531250 0.265625
vt 0.531250 0.015625
vt 0.515625 0.015625
vt 0.515625 0.265625
vt 0.531250 0.265625
vt 0.609375 0.000000
vt 0.609375 0.015625
vt 0.625000 0.015625
vt 0.625000 0.000000
vt 0.609375 0.000000
vt 0.609375 0.015625
vt 0.625000 0.015625
vt 0.625000 0.000000
vt 0.609375 0.000000
vt 0.609375 0.015625
vt 0.625000 0.000000
vt 0.515625 0.156250
vt 0.515625 0.171875
vt 0.531250 0.171875
vt 0.531250 0.156250
vt 0.515625 0.156250
vt 0.515625 0.171875
vt 0.531250 0.171875
vt 0.531250 0.156250
vt 0.515625 0.156250
vt 0.515625 0.171875
vt 0.531250 0.171875
vt 0.656250 0.265625
vt 0.656250 0.281250
vt 0.671875 0.281250
vt 0.671875 0.265625
vt 0.656250 0.265625
vt 0.656250 0.281250
vt 0.671875 0.281250
vt 0.671875 0.265625
vt 0.656250 0.265625
vt 0.656250 0.281250
vt 0.671875 0.281250
vt 0.515625 0.281250
vt 0.531250 0.281250
vt 0.531250 0.265625
vt 0.515625 0.281250
vt 0.531250 0.281250
vt 0.531250 0.265625
vt 0.515625 0.265625
vt 0.515625 0.281250
vt 0.531250 0.265625
vt 0.656250 0.265625
vt 0.531250 0.265625
vt 0.531250 0.281250
vt 0.656250 0.281250
vt 0.531250 0.281250
vt 0.656250 0.281250
vt 0.656250 0.265625
vt 0.531250 0.265625
vt 0.671875 0.125000
vt 0.656250 0.125000
vt 0.656250 0.250000
vt 0.671875 0.250000
vt 0.531250 0.031250
vt 0.515625 0.031250
vt 0.515625 0.156250
vt 0.531250 0.156250
vt 0.656250 0.265625
vt 0.531250 0.265625
vt 0.531250 0.281250
vt 0.656250 0.281250
vt 0.531250 0.281250
vt 0.656250 0.281250
vt 0.656250 0.265625
vt 0.531250 0.265625
vt 0.671875 0.125000
vt 0.656250 0.125000
vt 0.656250 0.250000
vt 0.671875 0.250000
vt 0.531250 0.031250
vt 0.515625 0.031250
vt 0.515625 0.156250
vt 0.531250 0.156250
vt 0.656250 0.000000
vt 0.531250 -0.000000
vt 0.531250 0.015625
vt 0.656250 0.015625
vt 0.531250 0.015625
vt 0.656250 0.015625
vt 0.656250 0.000000
vt 0.531250 -0.000000
vt 0.531250 0.250000
vt 0.531250 0.125000
vt 0.515625 0.125000
vt 0.515625 0.250000
vt 0.656250 0.031250
vt 0.656250 0.156250
vt 0.671875 0.156250
vt 0.671875 0.031250
vt 0.656250 0.000000
vt 0.531250 0.000000
vt 0.531250 0.015625
vt 0.656250 0.015625
vt 0.531250 0.015625
vt 0.656250 0.015625
vt 0.656250 0.000000
vt 0.531250 0.000000
vt 0.531250 0.250000
vt 0.531250 0.125000
vt 0.515625 0.125000
vt 0.515625 0.250000
vt 0.656250 0.031250
vt 0.656250 0.156250
vt 0.671875 0.156250
vt 0.671875 0.031250
vt 0.531250 0.015625
vt 0.515625 0.015625
vt 0.515625 0.265625
vt 0.531250 0.265625
vt 0.531250 0.015625
vt 0.515625 0.015625
vt 0.515625 0.265625
vt 0.531250 0.015625
vt 0.515625 0.015625
vt 0.515625 0.265625
vt 0.531250 0.265625
vt 0.531250 0.015625
vt 0.515625 0.015625
vt 0.515625 0.265625
vt 0.531250 0.265625
vt 0.531250 0.015625
vt 0.515625 0.015625
vt 0.515625 0.265625
vt 0.531250 0.265625
vt 0.531250 0.015625
vt 0.515625 0.015625
vt 0.515625 0.265625
vt 0.531250 0.015625
vt 0.515625 0.015625
vt 0.515625 0.265625
vt 0.531250 0.265625
vt 0.531250 0.015625
vt 0.515625 0.015625
vt 0.515625 0.265625
vt 0.531250 0.265625
vt 0.531250 0.015625
vt 0.515625 0.015625
vt 0.515625 0.265625
vt 0.531250 0.265625
vt 0.531250 0.015625
vt 0.515625 0.015625
vt 0.515625 0.265625
vt 0.531250 0.265625
vt 0.531250 0.015625
vt 0.515625 0.015625
vt 0.515625 0.265625
vt 0.531250 0.265625
vt 0.531250 0.015625
vt 0.515625 0.015625
vt 0.515625 0.265625
vt 0.531250 0.265625
vt 0.625000 0.968750
vt 0.781250 0.968750
vt 0.781250 0.937500
vt 0.625000 0.937500
vt 0.625000 0.968750
vt 0.781250 0.968750
vt 0.781250 0.937500
vt 0.625000 0.937500
vt 0.781250 0.937500
vt 0.625000 0.937500
vt 0.625000 0.968750
vt 0.781250 0.968750
vt 0.625000 0.968750
vt 0.781250 0.968750
vt 0.781250 0.937500
vt 0.625000 0.937500
vt 0.625000 0.968750
vt 0.781250 0.968750
vt 0.781250 0.937500
vt 0.625000 0.937500
vt 0.625000 0.968750
vt 0.781250 0.968750
vt 0.781250 0.937500
vt 0.625000 0.937500
vt 0.781250 0.937500
vt 0.625000 0.937500
vt 0.625000 0.968750
vt 0.781250 0.968750
vt 0.781250 0.937500
vt 0.625000 0.937500
vt 0.625000 0.968750
vt 0.781250 0.968750
vt 0.625000 0.968750
vt 0.781250 0.968750
vt 0.781250 0.937500
vt 0.625000 0.937500
vt 0.625000 0.968750
vt 0.781250 0.968750
vt 0.781250 0.937500
vt 0.625000 0.937500
vt 0.625000 0.937500
vt 0.625000 0.968750
vt 0.781250 0.968750
vt 0.781250 0.937500
vt 0.781250 0.968750
vt 0.781250 0.937500
vt 0.625000 0.937500
vt 0.625000 0.968750
vt 0.625000 0.968750
vt 0.781250 0.968750
vt 0.781250 0.937500
vt 0.625000 0.937500
vt 0.625000 0.968750
vt 0.781250 0.968750
vt 0.781250 0.937500
vt 0.625000 0.937500
vt 0.625000 0.937500
vt 0.625000 0.968750
vt 0.781250 0.968750
vt 0.781250 0.937500
vt 0.781250 0.968750
vt 0.781250 0.937500
vt 0.625000 0.937500
vt 0.625000 0.968750
vt 0.625000 0.968750
vt 0.781250 0.968750
vt 0.781250 0.937500
vt 0.625000 0.937500
vt 0.625000 0.968750
vt 0.781250 0.968750
vt 0.781250 0.937500
vt 0.625000 0.937500
vt 0.625000 0.937500
vt 0.781250 0.937500
vt 0.781250 0.937500
vt 0.625000 0.937500
vt 0.625000 0.968750
vt 0.781250 0.968750
vt 0.625000 0.968750
vt 0.781250 0.968750
vt 0.781250 0.937500
vt 0.625000 0.937500
vt 0.625000 0.968750
vt 0.781250 0.968750
vt 0.781250 0.937500
vt 0.625000 0.937500
vt 0.625000 0.937500
vt 0.625000 0.968750
vt 0.781250 0.968750
vt 0.781250 0.937500
vt 0.781250 0.968750
vt 0.781250 0.937500
vt 0.625000 0.937500
vt 0.625000 0.968750
vt 0.625000 0.968750
vt 0.781250 0.968750
vt 0.781250 0.937500
vt 0.625000 0.937500
vt 0.625000 0.968750
vt 0.781250 0.968750
vt 0.781250 0.937500
vt 0.625000 0.937500
vt 0.625000 0.937500
vt 0.625000 0.968750
vt 0.781250 0.968750
vt 0.781250 0.937500
vt 0.781250 0.968750
vt 0.781250 0.937500
vt 0.625000 0.937500
vt 0.625000 0.968750
vt 0.750000 0.515625
vt 0.796875 0.515625
vt 0.796875 0.328125
vt 0.750000 0.328125
vt 0.750000 0.515625
vt 0.796875 0.515625
vt 0.796875 0.328125
vt 0.750000 0.328125
vt 0.750000 0.515625
vt 0.796875 0.515625
vt 0.796875 0.328125
vt 0.750000 0.328125
vt 0.750000 0.515625
vt 0.796875 0.515625
vt 0.796875 0.328125
vt 0.750000 0.328125
vt 0.796875 0.562500
vt 0.843750 0.562500
vt 0.843750 0.515625
vt 0.843750 0.515625
vt 0.796875 0.515625
vt 0.796875 0.562500
vt 0.843750 0.562500
vt 0.750000 0.515625
vt 0.750000 0.328125
vt 0.796875 0.328125
vt 0.796875 0.515625
vt 0.750000 0.515625
vt 0.750000 0.328125
vt 0.796875 0.328125
vt 0.796875 0.515625
vt 0.750000 0.515625
vt 0.750000 0.328125
vt 0.796875 0.328125
vt 0.796875 0.515625
vt 0.750000 0.515625
vt 0.750000 0.328125
vt 0.796875 0.328125
vt 0.796875 0.515625
vt 0.796875 0.562500
vt 0.843750 0.515625
vt 0.843750 0.562500
vt 0.843750 0.515625
vt 0.843750 0.562500
vt 0.796875 0.562500
vt 0.796875 0.515625
vt 0.750000 0.515625
vt 0.750000 0.328125
vt 0.796875 0.328125
vt 0.796875 0.515625
vt 0.750000 0.515625
vt 0.750000 0.328125
vt 0.796875 0.328125
vt 0.796875 0.515625
vt 0.750000 0.515625
vt 0.750000 0.328125
vt 0.796875 0.328125
vt 0.796875 0.515625
vt 0.750000 0.515625
vt 0.750000 0.328125
vt 0.796875 0.328125
vt 0.796875 0.515625
vt 0.796875 0.562500
vt 0.843750 0.515625
vt 0.843750 0.562500
vt 0.843750 0.515625
vt 0.843750 0.562500
vt 0.796875 0.562500
vt 0.796875 0.515625
vt 0.750000 0.515625
vt 0.796875 0.515625
vt 0.796875 0.328125
vt 0.750000 0.328125
vt 0.750000 0.515625
vt 0.796875 0.515625
vt 0.796875 0.328125
vt 0.750000 0.328125
vt 0.750000 0.515625
vt 0.796875 0.515625
vt 0.796875 0.328125
vt 0.750000 0.328125
vt 0.750000 0.515625
vt 0.796875 0.515625
vt 0.796875 0.328125
vt 0.750000 0.328125
vt 0.796875 0.562500
vt 0.843750 0.562500
vt 0.843750 0.515625
vt 0.843750 0.515625
vt 0.796875 0.515625
vt 0.796875 0.562500
vt 0.843750 0.562500
vt -0.000000 0.578125
vt -0.000000 0.843750
vt 0.125000 0.843750
vt 0.125000 0.578125
vt -0.000000 0.578125
vt -0.000000 0.843750
vt 0.125000 0.843750
vt 0.125000 0.578125
vt -0.000000 0.578125
vt -0.000000 0.843750
vt 0.125000 0.843750
vt 0.125000 0.578125
vt -0.000000 0.578125
vt -0.000000 0.843750
vt 0.125000 0.843750
vt 0.125000 0.578125
vn -1.0000 0.0000 0.0000
vn 0.0000 0.0000 1.0000
vn 1.0000 0.0000 0.0000
vn 0.0000 0.0000 -1.0000
vn 0.0000 -1.0000 0.0000
vn 0.0000 1.0000 0.0000
vn -0.6974 0.1650 -0.6974
vn -0.7071 0.0000 0.7071
vn 0.6974 -0.1650 0.6974
vn 0.7071 0.0000 -0.7071
vn -0.1167 -0.9863 -0.1167
vn 0.1167 0.9863 0.1167
vn 0.6974 0.1650 -0.6974
vn 0.7071 -0.0000 0.7071
vn -0.6974 -0.1650 0.6974
vn -0.7071 -0.0000 -0.7071
vn 0.1167 -0.9863 -0.1167
vn -0.1167 0.9863 0.1167
vn -0.6974 0.1650 0.6974
vn 0.6974 -0.1650 -0.6974
vn -0.1167 -0.9863 0.1167
vn 0.1167 0.9863 -0.1167
vn 0.6974 0.1650 0.6974
vn -0.6974 -0.1650 -0.6974
vn 0.1167 -0.9863 0.1167
vn -0.1167 0.9863 -0.1167
usemtl None
s off
f 1/1/1 3/2/1 4/3/1 2/4/1
f 3/5/2 7/6/2 8/7/2 4/8/2
f 7/9/3 5/10/3 6/11/3 8/12/3
f 5/13/4 1/14/4 2/15/4 6/16/4
f 3/17/5 1/18/5 5/19/5 7/20/5
f 9/21/1 11/22/1 12/23/1 10/24/1
f 11/25/2 15/26/2 16/27/2 12/28/2
f 15/29/3 13/30/3 14/31/3 16/32/3
f 13/33/4 9/34/4 10/35/4 14/36/4
f 11/37/5 9/38/5 13/39/5 15/40/5
f 16/41/6 14/36/6 10/42/6 12/43/6
f 17/44/1 19/45/1 20/46/1 18/47/1
f 19/48/2 23/49/2 24/50/2 20/51/2
f 23/52/3 21/53/3 22/54/3 24/55/3
f 21/56/4 17/57/4 18/58/4 22/59/4
f 19/60/5 17/57/5 21/61/5 23/62/5
f 24/63/6 22/64/6 18/65/6 20/66/6
f 27/67/2 31/68/2 32/69/2 28/70/2
f 31/71/3 29/72/3 30/73/3 32/74/3
f 29/75/4 25/76/4 26/77/4 30/78/4
f 27/67/5 25/79/5 29/80/5 31/68/5
f 32/81/6 30/82/6 26/83/6 28/84/6
f 35/85/2 39/86/2 40/87/2 36/88/2
f 39/89/3 37/90/3 38/91/3 40/92/3
f 37/93/4 33/94/4 34/95/4 38/96/4
f 35/85/5 33/97/5 37/98/5 39/86/5
f 40/99/6 38/91/6 34/100/6 36/101/6
f 41/102/1 42/103/1 58/104/1 56/105/1
f 42/106/2 44/107/2 45/108/2 58/109/2
f 44/110/3 43/111/3 63/112/3 45/113/3
f 43/114/4 41/115/4 56/116/4 63/117/4
f 68/118/3 77/119/3 47/120/3 69/121/3
f 77/122/4 73/123/4 46/124/4 47/125/4
f 69/126/6 47/127/6 46/124/6 66/128/6
f 61/129/2 49/130/2 50/131/2 62/132/2
f 49/133/3 82/134/3 70/135/3 50/136/3
f 50/137/6 70/138/6 67/139/6 62/132/6
f 85/140/1 52/141/1 53/142/1 51/143/1
f 52/144/2 54/145/2 55/146/2 53/147/2
f 55/148/6 60/149/6 51/150/6 53/147/6
f 56/116/1 58/151/1 71/152/1 57/153/1
f 63/112/4 56/154/4 57/155/4 64/156/4
f 65/157/6 64/158/6 57/155/6 71/159/6
f 54/160/2 61/161/2 62/162/2 55/163/2
f 48/164/4 59/165/4 60/166/4 67/167/4
f 54/168/5 59/169/5 48/170/5 61/171/5
f 62/172/6 67/173/6 60/174/6 55/175/6
f 45/176/2 75/177/2 66/178/2 65/179/2
f 73/180/4 63/181/4 64/182/4 46/183/4
f 45/184/5 63/185/5 73/186/5 75/187/5
f 66/188/6 46/189/6 64/190/6 65/191/6
f 75/192/1 48/193/1 67/194/1 66/195/1
f 82/196/3 68/197/3 69/198/3 70/199/3
f 48/200/5 75/201/5 68/202/5 82/203/5
f 70/204/6 69/205/6 66/206/6 67/207/6
f 58/208/1 85/209/1 51/210/1 71/211/1
f 59/212/3 45/213/3 65/214/3 60/215/3
f 85/216/5 58/217/5 45/218/5 59/219/5
f 60/220/6 65/221/6 71/222/6 51/223/6
f 72/224/1 74/225/1 75/226/1 73/227/1
f 74/228/2 78/229/2 68/230/2 75/177/2
f 78/231/3 76/232/3 77/233/3 68/234/3
f 76/235/4 72/236/4 73/237/4 77/238/4
f 79/239/1 80/240/1 61/241/1 48/242/1
f 80/243/2 83/244/2 49/245/2 61/161/2
f 83/246/3 81/247/3 82/248/3 49/249/3
f 81/250/4 79/251/4 48/252/4 82/253/4
f 84/254/1 86/255/1 52/256/1 85/257/1
f 86/258/2 88/259/2 54/260/2 52/261/2
f 88/262/3 87/263/3 59/264/3 54/265/3
f 87/266/4 84/267/4 85/268/4 59/269/4
f 89/270/1 91/271/1 92/272/1 90/273/1
f 95/274/3 93/275/3 94/276/3 96/277/3
f 91/278/5 89/279/5 93/280/5 95/281/5
f 96/282/6 94/283/6 90/284/6 92/285/6
f 97/286/1 99/287/1 100/288/1 98/289/1
f 103/290/3 101/291/3 102/292/3 104/293/3
f 99/294/5 97/295/5 101/296/5 103/297/5
f 104/298/6 102/299/6 98/300/6 100/301/6
f 107/302/2 111/303/2 112/304/2 108/305/2
f 109/306/4 105/307/4 106/308/4 110/309/4
f 107/310/5 105/311/5 109/312/5 111/313/5
f 112/314/6 110/315/6 106/316/6 108/317/6
f 115/318/2 119/319/2 120/320/2 116/321/2
f 117/322/4 113/323/4 114/324/4 118/325/4
f 115/326/5 113/327/5 117/328/5 119/329/5
f 120/330/6 118/331/6 114/332/6 116/333/6
f 121/334/1 123/335/1 124/336/1 122/337/1
f 127/338/3 125/339/3 126/340/3 128/341/3
f 123/342/5 121/334/5 125/339/5 127/343/5
f 128/344/6 126/345/6 122/346/6 124/347/6
f 131/348/2 135/349/2 136/350/2 132/351/2
f 133/352/4 129/353/4 130/354/4 134/355/4
f 131/356/5 129/357/5 133/358/5 135/359/5
f 136/360/6 134/361/6 130/362/6 132/363/6
f 139/364/2 143/365/2 144/366/2 140/367/2
f 141/368/4 137/369/4 138/370/4 142/371/4
f 139/372/5 137/373/5 141/374/5 143/375/5
f 144/376/6 142/377/6 138/378/6 140/379/6
f 145/380/7 147/381/7 148/382/7 146/383/7
f 147/384/8 151/385/8 152/386/8 148/387/8
f 151/388/9 149/389/9 150/390/9 152/391/9
f 149/392/10 145/393/10 146/394/10 150/395/10
f 147/396/11 145/397/11 149/398/11 151/385/11
f 152/399/12 150/400/12 146/401/12 148/402/12
f 153/403/13 154/404/13 156/405/13 155/406/13
f 155/407/14 156/408/14 160/409/14 159/410/14
f 159/411/15 160/412/15 158/413/15 157/414/15
f 157/415/16 158/416/16 154/417/16 153/418/16
f 155/419/17 159/410/17 157/420/17 153/421/17
f 160/422/18 156/423/18 154/424/18 158/425/18
f 161/426/19 162/427/19 164/428/19 163/429/19
f 163/430/16 164/431/16 168/432/16 167/433/16
f 167/434/20 168/435/20 166/436/20 165/437/20
f 165/438/14 166/439/14 162/440/14 161/441/14
f 163/442/21 167/433/21 165/443/21 161/444/21
f 168/445/22 164/446/22 162/447/22 166/448/22
f 169/449/23 171/450/23 172/451/23 170/452/23
f 171/453/10 175/454/10 176/455/10 172/456/10
f 175/457/24 173/458/24 174/459/24 176/460/24
f 173/461/8 169/462/8 170/463/8 174/464/8
f 171/465/25 169/466/25 173/467/25 175/454/25
f 176/468/26 174/469/26 170/470/26 172/471/26
f 177/472/1 179/473/1 180/474/1 178/475/1
f 179/476/2 183/477/2 184/478/2 180/479/2
f 183/480/3 181/481/3 182/482/3 184/483/3
f 181/484/4 177/485/4 178/486/4 182/487/4
