# Original model Created by Flaxbeard. Converted to OBJ by TwistedGate.

mtllib pumpjack_mirrored.mtl
o pumpjack_mirrored
v 2.000000 0.000000 6.000000
v 2.000000 0.500000 6.000000
v -1.000000 0.000000 6.000000
v -1.000000 0.500000 6.000000
v 2.000001 0.000000 1.000000
v 2.000001 0.500000 1.000000
v -0.999999 0.000000 1.000000
v -0.999999 0.500000 1.000000
v 0.000000 0.500000 6.000000
v 0.000000 2.000000 6.000000
v -1.000000 2.000000 6.000000
v 0.000000 0.500000 5.000000
v 0.000000 2.000000 5.000000
v -1.000000 0.500000 5.000000
v -1.000000 2.000000 5.000000
v 2.000000 1.000000 6.000000
v 2.000000 2.000000 6.000000
v 1.000000 1.000000 6.000000
v 1.000000 2.000000 6.000000
v 2.000000 1.000000 5.500000
v 2.000000 2.000000 5.500000
v 1.000000 1.000000 5.500000
v 1.000000 2.000000 5.500000
v 1.875000 0.500000 5.875000
v 1.875000 1.000000 5.875000
v 1.750000 0.500000 5.875000
v 1.750000 1.000000 5.875000
v 1.875000 0.500000 5.625000
v 1.875000 1.000000 5.625000
v 1.750000 0.500000 5.625000
v 1.750000 1.000000 5.625000
v 1.250000 0.500000 5.875000
v 1.250000 1.000000 5.875000
v 1.125000 0.500000 5.875000
v 1.125000 1.000000 5.875000
v 1.250000 0.500000 5.625000
v 1.250000 1.000000 5.625000
v 1.125000 0.500000 5.625000
v 1.125000 1.000000 5.625000
v 1.000001 0.500000 2.687500
v 1.000001 0.875000 2.687500
v 0.000001 0.500000 2.687500
v 0.000001 0.875000 2.687500
v 1.000001 0.500000 2.312500
v 1.000001 0.875000 2.312500
v 0.000001 0.500000 2.312500
v 0.000001 0.875000 2.312500
v 0.687501 0.500000 2.312500
v 0.687501 0.875000 2.312500
v 0.312501 0.500000 2.312500
v 0.312501 0.875000 2.312500
v 0.687501 0.500000 0.812500
v 0.687501 0.875000 0.812500
v 0.312501 0.500000 0.812500
v 0.312501 0.875000 0.812500
v 0.812501 0.000000 0.812500
v 0.812501 1.000000 0.812500
v 0.187501 0.000000 0.812500
v 0.187501 1.000000 0.812500
v 0.812501 0.000000 0.187500
v 0.812501 1.000000 0.187500
v 0.187501 0.000000 0.187500
v 0.187501 1.000000 0.187500
v 0.000001 0.500000 3.000000
v 0.000001 1.000000 3.000000
v -1.000000 0.500000 3.000000
v -1.000000 1.000000 3.000000
v 0.000001 0.500000 2.000000
v 0.000001 1.000000 2.000000
v -0.999999 0.500000 2.000000
v -0.999999 1.000000 2.000000
v 2.000000 0.500000 3.000000
v 2.000000 1.000000 3.000000
v 1.000001 0.500000 3.000000
v 1.000001 1.000000 3.000000
v 2.000001 0.500000 2.000000
v 2.000001 1.000000 2.000000
v 1.000001 0.500000 2.000000
v 1.000001 1.000000 2.000000
v 1.062501 2.875000 2.625000
v 1.062501 3.125000 2.625000
v -0.062499 2.875000 2.625000
v -0.062499 3.125000 2.625000
v 1.062501 2.875000 2.375000
v 1.062501 3.125000 2.375000
v -0.062499 2.875000 2.375000
v -0.062499 3.125000 2.375000
v 0.750000 0.500000 5.000000
v 0.750000 2.250000 5.000000
v 0.250000 0.500000 5.000000
v 0.250000 2.250000 5.000000
v 0.750000 0.500000 4.000000
v 0.750000 2.250000 4.000000
v 0.250000 0.500000 4.000000
v 0.250000 2.250000 4.000000
v -0.378924 0.353008 1.742987
v -0.076477 2.893563 2.565643
v -0.131168 0.331905 1.717070
v 0.171279 2.872460 2.539726
v -0.396965 0.431764 1.506403
v -0.094518 2.972319 2.329059
v -0.149209 0.410661 1.480486
v 0.153238 2.951216 2.303142
v -0.131169 0.331905 3.282929
v 0.171279 2.872460 2.460274
v -0.378925 0.353008 3.257012
v -0.076477 2.893563 2.434356
v -0.149209 0.410661 3.519513
v 0.153238 2.951216 2.696857
v -0.396965 0.431764 3.493596
v -0.094518 2.972319 2.670940
v 1.396966 0.431764 3.493597
v 1.094519 2.972318 2.670941
v 1.149210 0.410661 3.519513
v 0.846763 2.951216 2.696858
v 1.378926 0.353008 3.257012
v 1.076479 2.893563 2.434356
v 1.131170 0.331905 3.282929
v 0.828723 2.872460 2.460274
v 1.149210 0.410661 1.480486
v 0.846763 2.951216 2.303142
v 1.396966 0.431764 1.506403
v 1.094519 2.972318 2.329059
v 1.131170 0.331905 1.717071
v 0.828723 2.872460 2.539726
v 1.378926 0.353008 1.742988
v 1.076479 2.893563 2.565643
vt 1.000000 -0.000000
vt 1.000000 0.062500
vt 0.625000 0.062500
vt 0.625000 0.000000
vt 0.000000 0.000000
vt 0.000000 0.062500
vt 0.625000 0.062500
vt 0.625000 0.000000
vt 1.000000 -0.000000
vt 1.000000 0.062500
vt 0.625000 0.062500
vt 0.625000 0.000000
vt 0.000000 0.062500
vt 0.000000 0.000000
vt 0.000000 0.625000
vt 0.625000 0.625000
vt 0.625000 1.000000
vt 0.000000 1.000000
vt 0.000000 0.250000
vt 0.625000 0.250000
vt 0.625000 0.625000
vt 0.000000 0.625000
vt 0.757812 0.500000
vt 0.757812 0.679688
vt 0.632812 0.679688
vt 0.632812 0.500000
vt 0.882812 0.500000
vt 0.882812 0.679688
vt 0.757812 0.679688
vt 0.757812 0.500000
vt 0.632812 0.679688
vt 0.632812 0.500000
vt 0.757812 0.500000
vt 0.757812 0.679688
vt 0.632812 0.679688
vt 0.632812 0.500000
vt 0.375000 0.125000
vt 0.500000 0.125000
vt 0.500000 0.250000
vt 0.375000 0.250000
vt 0.125000 0.125000
vt 0.125000 0.250000
vt 0.000000 0.250000
vt 0.000000 0.125000
vt 0.375000 0.125000
vt 0.375000 0.250000
vt 0.312500 0.250000
vt 0.312500 0.125000
vt 0.375000 0.125000
vt 0.375000 0.250000
vt 0.250000 0.250000
vt 0.250000 0.125000
vt 0.312500 0.125000
vt 0.312500 0.250000
vt 0.250000 0.250000
vt 0.250000 0.125000
vt 0.250000 0.125000
vt 0.312500 0.250000
vt 0.250000 0.250000
vt 0.312500 0.125000
vt 0.375000 0.125000
vt 0.375000 0.250000
vt 0.750000 0.929688
vt 0.750000 0.992188
vt 0.734375 0.992188
vt 0.734375 0.929688
vt 0.781250 0.929688
vt 0.781250 0.992188
vt 0.750000 0.992188
vt 0.750000 0.929688
vt 0.734375 0.992188
vt 0.734375 0.929688
vt 0.781250 0.929688
vt 0.781250 0.992188
vt 0.750000 0.929688
vt 0.750000 0.992188
vt 0.734375 0.992188
vt 0.734375 0.929688
vt 0.781250 0.929688
vt 0.781250 0.992188
vt 0.750000 0.992188
vt 0.750000 0.929688
vt 0.734375 0.992188
vt 0.734375 0.929688
vt 0.781250 0.929688
vt 0.781250 0.992188
vt 0.125000 0.078125
vt 0.125000 0.125000
vt 0.000000 0.125000
vt 0.000000 0.078125
vt 0.125000 0.078125
vt 0.125000 0.125000
vt 0.000000 0.125000
vt 0.000000 0.078125
vt 0.125000 0.078125
vt 0.125000 0.125000
vt 0.000000 0.125000
vt 0.000000 0.078125
vt 0.187500 0.078125
vt 0.187500 0.125000
vt -0.000000 0.125000
vt -0.000000 0.078125
vt 0.187500 0.078125
vt 0.187500 0.125000
vt -0.000000 0.125000
vt -0.000000 0.078125
vt -0.000000 0.078125
vt 0.187500 0.078125
vt 0.187500 0.125000
vt -0.000000 0.125000
vt 0.882812 0.765625
vt 0.882812 0.890625
vt 0.804688 0.890625
vt 0.804688 0.765625
vt 0.882812 0.765625
vt 0.882812 0.890625
vt 0.804688 0.890625
vt 0.804688 0.765625
vt 0.882812 0.765625
vt 0.882812 0.890625
vt 0.804688 0.890625
vt 0.804688 0.765625
vt 0.882812 0.765625
vt 0.882812 0.890625
vt 0.804688 0.890625
vt 0.804688 0.765625
vt 0.804688 0.695312
vt 0.882812 0.695312
vt 0.882812 0.773438
vt 0.804688 0.773438
vt 0.804688 0.898438
vt 0.882812 0.898438
vt 0.882812 0.976562
vt 0.804688 0.976562
vt 0.375000 0.187500
vt 0.375000 0.250000
vt 0.250000 0.250000
vt 0.250000 0.187500
vt 0.125000 0.250000
vt 0.125000 0.187500
vt 0.375000 0.187500
vt 0.375000 0.250000
vt 0.250000 0.250000
vt 0.250000 0.187500
vt 0.375000 0.187500
vt 0.375000 0.250000
vt 0.250000 0.250000
vt 0.250000 0.187500
vt 0.250000 0.125000
vt 0.375000 0.125000
vt 0.375000 0.187500
vt 0.375000 0.250000
vt 0.250000 0.250000
vt 0.250000 0.187500
vt 0.375000 0.187500
vt 0.375000 0.250000
vt 0.250000 0.250000
vt 0.250000 0.187500
vt 0.375000 0.187500
vt 0.375000 0.250000
vt 0.250000 0.250000
vt 0.250000 0.187500
vt 0.125000 0.187500
vt 0.125000 0.250000
vt 0.250000 0.250000
vt 0.250000 0.187500
vt 0.250000 0.125000
vt 0.375000 0.125000
vt 0.750000 0.062500
vt 0.750000 0.093750
vt 0.609375 0.093750
vt 0.609375 0.062500
vt 0.812500 0.062500
vt 0.812500 0.093750
vt 0.781250 0.093750
vt 0.781250 0.062500
vt 0.750000 0.062500
vt 0.750000 0.093750
vt 0.609375 0.093750
vt 0.609375 0.062500
vt 0.812500 0.062500
vt 0.812500 0.093750
vt 0.781250 0.093750
vt 0.781250 0.062500
vt 0.781250 0.062500
vt 0.781250 0.093750
vt 0.640625 0.093750
vt 0.640625 0.062500
vt 0.781250 0.062500
vt 0.781250 0.093750
vt 0.640625 0.093750
vt 0.640625 0.062500
vt 0.875000 0.062500
vt 0.875000 0.281250
vt 0.812500 0.281250
vt 0.812500 0.062500
vt 1.000000 0.062500
vt 1.000000 0.281250
vt 0.875000 0.281250
vt 0.875000 0.062500
vt 0.812500 0.281250
vt 0.812500 0.062500
vt 1.000000 0.062500
vt 1.000000 0.281250
vt 1.000000 0.343750
vt 0.875000 0.343750
vt 0.882812 0.664062
vt 0.914062 0.664062
vt 0.914062 1.000000
vt 0.882812 1.000000
vt 0.945312 0.664062
vt 0.945312 1.000000
vt 0.882812 0.664062
vt 0.914062 0.664062
vt 0.914062 1.000000
vt 0.882812 1.000000
vt 0.945312 0.664062
vt 0.945312 1.000000
vt 0.882812 0.632812
vt 0.914062 0.632812
vt 0.914062 0.664062
vt 0.882812 0.664062
vt 0.882812 0.664062
vt 0.914062 0.664062
vt 0.914062 1.000000
vt 0.882812 1.000000
vt 0.945312 0.664062
vt 0.945312 1.000000
vt 0.882812 0.664062
vt 0.914062 0.664062
vt 0.914062 1.000000
vt 0.882812 1.000000
vt 0.945312 0.664062
vt 0.945312 1.000000
vt 0.882812 0.632812
vt 0.914062 0.632812
vt 0.914062 0.664062
vt 0.882812 0.664062
vt 0.914062 0.664062
vt 0.914062 1.000000
vt 0.882812 1.000000
vt 0.882812 0.664062
vt 0.945312 0.664062
vt 0.945312 1.000000
vt 0.914062 1.000000
vt 0.914062 0.664062
vt 0.882812 1.000000
vt 0.882812 0.664062
vt 0.945312 0.664062
vt 0.945312 1.000000
vt 0.882812 0.632812
vt 0.914062 0.632812
vt 0.914062 0.664062
vt 0.882812 0.664062
vt 0.914062 0.664062
vt 0.914062 1.000000
vt 0.882812 1.000000
vt 0.882812 0.664062
vt 0.945312 0.664062
vt 0.945312 1.000000
vt 0.914062 1.000000
vt 0.914062 0.664062
vt 0.882812 1.000000
vt 0.882812 0.664062
vt 0.945312 0.664062
vt 0.945312 1.000000
vt 0.882812 0.632812
vt 0.914062 0.632812
vt 0.914062 0.664062
vt 0.882812 0.664062
vn -0.0000 0.0000 1.0000
vn -1.0000 0.0000 -0.0000
vn 0.0000 0.0000 -1.0000
vn 1.0000 0.0000 0.0000
vn 0.0000 -1.0000 0.0000
vn 0.0000 1.0000 0.0000
vn 0.0722 -0.3150 0.9463
vn 0.9910 -0.0844 -0.1037
vn -0.0722 0.3150 -0.9463
vn -0.9910 0.0844 0.1037
vn 0.1125 0.9453 0.3061
vn 0.0722 -0.3150 -0.9463
vn -0.9910 0.0844 -0.1037
vn -0.0722 0.3150 0.9463
vn 0.9910 -0.0844 0.1037
vn 0.1125 0.9453 -0.3061
vn 0.0722 0.3150 0.9463
vn -0.9910 -0.0844 0.1037
vn -0.0722 -0.3150 -0.9463
vn 0.9910 0.0844 -0.1037
vn -0.1125 0.9453 -0.3061
vn 0.0722 0.3150 -0.9463
vn 0.9910 0.0844 0.1037
vn -0.0722 -0.3150 0.9463
vn -0.9910 -0.0844 -0.1037
vn -0.1125 0.9453 0.3061
usemtl None
s off
f 1/1/1 2/2/1 4/3/1 3/4/1
f 3/5/2 4/6/2 8/7/2 7/8/2
f 7/9/3 8/10/3 6/11/3 5/12/3
f 5/12/4 6/11/4 2/13/4 1/14/4
f 3/15/5 7/16/5 5/17/5 1/18/5
f 8/19/6 4/20/6 2/21/6 6/22/6
f 9/23/1 10/24/1 11/25/1 4/26/1
f 4/27/2 11/28/2 15/29/2 14/30/2
f 14/30/3 15/29/3 13/31/3 12/32/3
f 12/33/4 13/34/4 10/35/4 9/36/4
f 15/37/6 11/38/6 10/39/6 13/40/6
f 16/41/1 17/42/1 19/43/1 18/44/1
f 18/45/2 19/46/2 23/47/2 22/48/2
f 22/49/3 23/50/3 21/51/3 20/52/3
f 20/53/4 21/54/4 17/55/4 16/56/4
f 18/57/5 22/48/5 20/58/5 16/59/5
f 23/60/6 19/61/6 17/62/6 21/54/6
f 24/63/1 25/64/1 27/65/1 26/66/1
f 26/67/2 27/68/2 31/69/2 30/70/2
f 30/70/3 31/69/3 29/71/3 28/72/3
f 28/73/4 29/74/4 25/64/4 24/63/4
f 32/75/1 33/76/1 35/77/1 34/78/1
f 34/79/2 35/80/2 39/81/2 38/82/2
f 38/82/3 39/81/3 37/83/3 36/84/3
f 36/85/4 37/86/4 33/76/4 32/75/4
f 40/87/1 41/88/1 43/89/1 42/90/1
f 46/91/3 47/92/3 45/93/3 44/94/3
f 47/95/6 43/96/6 41/97/6 45/98/6
f 50/99/2 51/100/2 55/101/2 54/102/2
f 52/103/4 53/104/4 49/105/4 48/106/4
f 55/107/6 51/108/6 49/109/6 53/110/6
f 56/111/1 57/112/1 59/113/1 58/114/1
f 58/115/2 59/116/2 63/117/2 62/118/2
f 62/119/3 63/120/3 61/121/3 60/122/3
f 60/123/4 61/124/4 57/125/4 56/126/4
f 58/127/5 62/128/5 60/129/5 56/130/5
f 63/131/6 59/132/6 57/133/6 61/134/6
f 64/135/1 65/136/1 67/137/1 66/138/1
f 66/138/2 67/137/2 71/139/2 70/140/2
f 70/141/3 71/142/3 69/143/3 68/144/3
f 68/145/4 69/146/4 65/147/4 64/148/4
f 71/149/6 67/150/6 65/136/6 69/143/6
f 72/151/1 73/152/1 75/153/1 74/154/1
f 74/155/2 75/156/2 79/157/2 78/158/2
f 78/159/3 79/160/3 77/161/3 76/162/3
f 76/163/4 77/164/4 73/165/4 72/166/4
f 79/167/6 75/168/6 73/152/6 77/161/6
f 80/169/1 81/170/1 83/171/1 82/172/1
f 82/173/2 83/174/2 87/175/2 86/176/2
f 86/177/3 87/178/3 85/179/3 84/180/3
f 84/181/4 85/182/4 81/183/4 80/184/4
f 82/185/5 86/186/5 84/187/5 80/188/5
f 87/189/6 83/190/6 81/191/6 85/192/6
f 88/193/1 89/194/1 91/195/1 90/196/1
f 90/197/2 91/198/2 95/199/2 94/200/2
f 94/200/3 95/199/3 93/201/3 92/202/3
f 92/203/4 93/204/4 89/194/4 88/193/4
f 95/205/6 91/206/6 89/194/6 93/204/6
f 96/207/7 98/208/7 99/209/7 97/210/7
f 98/208/8 102/211/8 103/212/8 99/209/8
f 102/213/9 100/214/9 101/215/9 103/216/9
f 100/214/10 96/217/10 97/218/10 101/215/10
f 103/219/11 101/220/11 97/221/11 99/222/11
f 104/223/12 106/224/12 107/225/12 105/226/12
f 106/224/13 110/227/13 111/228/13 107/225/13
f 110/229/14 108/230/14 109/231/14 111/232/14
f 108/230/15 104/233/15 105/234/15 109/231/15
f 111/235/16 109/236/16 105/237/16 107/238/16
f 112/239/17 113/240/17 115/241/17 114/242/17
f 114/243/18 115/244/18 119/245/18 118/246/18
f 118/246/19 119/245/19 117/247/19 116/248/19
f 116/249/20 117/250/20 113/240/20 112/239/20
f 119/251/21 115/252/21 113/253/21 117/254/21
f 120/255/22 121/256/22 123/257/22 122/258/22
f 122/259/23 123/260/23 127/261/23 126/262/23
f 126/262/24 127/261/24 125/263/24 124/264/24
f 124/265/25 125/266/25 121/256/25 120/255/25
f 127/267/26 123/268/26 121/269/26 125/270/26
